<mxfile host="Electron" modified="2023-08-18T12:07:19.254Z" agent="Mozilla/5.0 (Windows NT 10.0; Win64; x64) AppleWebKit/537.36 (KHTML, like Gecko) draw.io/21.6.8 Chrome/114.0.5735.289 Electron/25.5.0 Safari/537.36" etag="O2-fkFo5i3M9MfMhGfVB" version="21.6.8" type="device">
  <diagram name="Page-1" id="pT9zCR7jW5yzUa4xEAgO">
    <mxGraphModel dx="1420" dy="1967" grid="1" gridSize="10" guides="1" tooltips="1" connect="1" arrows="1" fold="1" page="1" pageScale="1" pageWidth="1654" pageHeight="1169" math="0" shadow="0">
      <root>
        <mxCell id="0" />
        <mxCell id="1" parent="0" />
        <mxCell id="U1KqUVC1e1E0VkJmuzpn-1" value="AciesOne" style="swimlane;html=1;childLayout=stackLayout;resizeParent=1;resizeParentMax=0;horizontal=0;startSize=20;horizontalStack=0;" parent="1" vertex="1">
          <mxGeometry y="-1169" width="1650" height="900" as="geometry" />
        </mxCell>
        <mxCell id="U1KqUVC1e1E0VkJmuzpn-2" value="Data Sniffer" style="swimlane;html=1;startSize=20;horizontal=0;" parent="U1KqUVC1e1E0VkJmuzpn-1" vertex="1">
          <mxGeometry x="20" width="1630" height="320" as="geometry" />
        </mxCell>
        <mxCell id="U1KqUVC1e1E0VkJmuzpn-3" value="AciesOne" style="shape=mxgraph.bpmn.event;html=1;verticalLabelPosition=bottom;labelBackgroundColor=#ffffff;verticalAlign=top;align=center;outlineConnect=0;aspect=fixed;outline=standard;symbol=message;points=[[0.145,0.145,0],[0.5,0,0],[0.855,0.145,0],[1,0.5,0],[0.855,0.855,0],[0.5,1,0],[0.145,0.855,0],[0,0.5,0]];perimeter=ellipsePerimeter;" parent="U1KqUVC1e1E0VkJmuzpn-2" vertex="1">
          <mxGeometry x="40" y="85" width="50" height="50" as="geometry" />
        </mxCell>
        <mxCell id="U1KqUVC1e1E0VkJmuzpn-28" value="" style="edgeStyle=elbowEdgeStyle;fontSize=12;html=1;endArrow=blockThin;endFill=1;rounded=0;" parent="U1KqUVC1e1E0VkJmuzpn-2" source="U1KqUVC1e1E0VkJmuzpn-90" target="U1KqUVC1e1E0VkJmuzpn-86" edge="1">
          <mxGeometry width="160" relative="1" as="geometry">
            <mxPoint x="50" y="297" as="sourcePoint" />
            <mxPoint x="280" y="427" as="targetPoint" />
          </mxGeometry>
        </mxCell>
        <mxCell id="U1KqUVC1e1E0VkJmuzpn-35" value="" style="edgeStyle=elbowEdgeStyle;fontSize=12;html=1;endArrow=blockThin;endFill=1;rounded=0;" parent="U1KqUVC1e1E0VkJmuzpn-2" source="U1KqUVC1e1E0VkJmuzpn-3" target="c-N2GnIyo7EjWN-7pbOH-3" edge="1">
          <mxGeometry width="160" relative="1" as="geometry">
            <mxPoint x="160" y="417" as="sourcePoint" />
            <mxPoint x="110" y="110" as="targetPoint" />
          </mxGeometry>
        </mxCell>
        <mxCell id="U1KqUVC1e1E0VkJmuzpn-51" value="Prod*, ordlin" style="shape=datastore;whiteSpace=wrap;html=1;labelPosition=center;verticalLabelPosition=bottom;align=center;verticalAlign=top;aspect=fixed;" parent="U1KqUVC1e1E0VkJmuzpn-2" vertex="1">
          <mxGeometry x="40" y="170" width="40" height="40" as="geometry" />
        </mxCell>
        <mxCell id="U1KqUVC1e1E0VkJmuzpn-52" value="" style="fontSize=12;html=1;endFill=0;startFill=0;endSize=6;startSize=6;dashed=1;dashPattern=1 4;endArrow=openThin;startArrow=none;rounded=0;elbow=vertical;" parent="U1KqUVC1e1E0VkJmuzpn-2" source="U1KqUVC1e1E0VkJmuzpn-51" target="c-N2GnIyo7EjWN-7pbOH-3" edge="1">
          <mxGeometry width="160" relative="1" as="geometry">
            <mxPoint x="-232" y="54" as="sourcePoint" />
            <mxPoint x="110" y="77.27272727272725" as="targetPoint" />
          </mxGeometry>
        </mxCell>
        <mxCell id="U1KqUVC1e1E0VkJmuzpn-53" value="JSON" style="shape=mxgraph.bpmn.data;labelPosition=center;verticalLabelPosition=bottom;align=center;verticalAlign=top;whiteSpace=wrap;size=15;html=1;fontFamily=Helvetica;fontSize=12;fontColor=default;strokeColor=default;fillColor=default;" parent="U1KqUVC1e1E0VkJmuzpn-2" vertex="1">
          <mxGeometry x="209.9999999999999" y="180" width="30" height="40" as="geometry" />
        </mxCell>
        <mxCell id="U1KqUVC1e1E0VkJmuzpn-54" value="" style="fontSize=12;html=1;endFill=0;startFill=0;endSize=6;startSize=6;dashed=1;dashPattern=1 4;endArrow=openThin;startArrow=none;rounded=0;" parent="U1KqUVC1e1E0VkJmuzpn-2" source="c-N2GnIyo7EjWN-7pbOH-3" target="U1KqUVC1e1E0VkJmuzpn-53" edge="1">
          <mxGeometry width="160" relative="1" as="geometry">
            <mxPoint x="190" y="150" as="sourcePoint" />
            <mxPoint x="506" y="639" as="targetPoint" />
          </mxGeometry>
        </mxCell>
        <mxCell id="U1KqUVC1e1E0VkJmuzpn-86" value="Upload artifact to AciesCore" style="shape=mxgraph.bpmn.task;whiteSpace=wrap;rectStyle=rounded;size=10;taskMarker=service;points=[[0.25,0,0],[0.5,0,0],[0.75,0,0],[1,0.25,0],[1,0.5,0],[1,0.75,0],[0.75,1,0],[0.5,1,0],[0.25,1,0],[0,0.75,0],[0,0.5,0],[0,0.25,0]];html=1;container=1;expand=0;collapsible=0;" parent="U1KqUVC1e1E0VkJmuzpn-2" vertex="1">
          <mxGeometry x="260" y="210" width="120" height="80" as="geometry" />
        </mxCell>
        <mxCell id="U1KqUVC1e1E0VkJmuzpn-87" value="" style="points=[[0.145,0.145,0],[0.5,0,0],[0.855,0.145,0],[1,0.5,0],[0.855,0.855,0],[0.5,1,0],[0.145,0.855,0],[0,0.5,0]];shape=mxgraph.bpmn.event;html=1;verticalLabelPosition=bottom;labelBackgroundColor=#ffffff;verticalAlign=top;align=center;perimeter=ellipsePerimeter;outlineConnect=0;aspect=fixed;outline=catching;symbol=message;" parent="U1KqUVC1e1E0VkJmuzpn-2" vertex="1">
          <mxGeometry x="430" y="225" width="50" height="50" as="geometry" />
        </mxCell>
        <mxCell id="U1KqUVC1e1E0VkJmuzpn-90" value="Build artifact with tags" style="shape=mxgraph.bpmn.task;whiteSpace=wrap;rectStyle=rounded;size=10;taskMarker=script;points=[[0.25,0,0],[0.5,0,0],[0.75,0,0],[1,0.25,0],[1,0.5,0],[1,0.75,0],[0.75,1,0],[0.5,1,0],[0.25,1,0],[0,0.75,0],[0,0.5,0],[0,0.25,0]];html=1;container=1;expand=0;collapsible=0;" parent="U1KqUVC1e1E0VkJmuzpn-2" vertex="1">
          <mxGeometry x="260" y="70" width="120" height="80" as="geometry" />
        </mxCell>
        <mxCell id="U1KqUVC1e1E0VkJmuzpn-91" value="" style="edgeStyle=elbowEdgeStyle;fontSize=12;html=1;endArrow=blockThin;endFill=1;rounded=0;" parent="U1KqUVC1e1E0VkJmuzpn-2" source="c-N2GnIyo7EjWN-7pbOH-3" target="U1KqUVC1e1E0VkJmuzpn-90" edge="1">
          <mxGeometry width="160" relative="1" as="geometry">
            <mxPoint x="230" y="110" as="sourcePoint" />
            <mxPoint x="330" y="-717" as="targetPoint" />
          </mxGeometry>
        </mxCell>
        <mxCell id="U1KqUVC1e1E0VkJmuzpn-92" value="" style="fontSize=12;html=1;endFill=0;startFill=0;endSize=6;startSize=6;dashed=1;dashPattern=1 4;endArrow=openThin;startArrow=none;rounded=0;" parent="U1KqUVC1e1E0VkJmuzpn-2" source="U1KqUVC1e1E0VkJmuzpn-53" target="U1KqUVC1e1E0VkJmuzpn-90" edge="1">
          <mxGeometry width="160" relative="1" as="geometry">
            <mxPoint x="97" y="167" as="sourcePoint" />
            <mxPoint x="506" y="639" as="targetPoint" />
          </mxGeometry>
        </mxCell>
        <mxCell id="U1KqUVC1e1E0VkJmuzpn-93" value="" style="shape=mxgraph.bpmn.data;labelPosition=center;verticalLabelPosition=bottom;align=center;verticalAlign=top;whiteSpace=wrap;size=15;html=1;fontFamily=Helvetica;fontSize=12;fontColor=default;strokeColor=default;fillColor=default;" parent="U1KqUVC1e1E0VkJmuzpn-2" vertex="1">
          <mxGeometry x="409.9999999999999" y="170" width="30" height="40" as="geometry" />
        </mxCell>
        <mxCell id="U1KqUVC1e1E0VkJmuzpn-94" value="" style="fontSize=12;html=1;endFill=0;startFill=0;endSize=6;startSize=6;dashed=1;dashPattern=1 4;endArrow=openThin;startArrow=none;rounded=0;" parent="U1KqUVC1e1E0VkJmuzpn-2" source="U1KqUVC1e1E0VkJmuzpn-90" target="U1KqUVC1e1E0VkJmuzpn-93" edge="1">
          <mxGeometry width="160" relative="1" as="geometry">
            <mxPoint x="167" y="167" as="sourcePoint" />
            <mxPoint x="576" y="639" as="targetPoint" />
          </mxGeometry>
        </mxCell>
        <mxCell id="U1KqUVC1e1E0VkJmuzpn-95" value="" style="fontSize=12;html=1;endFill=0;startFill=0;endSize=6;startSize=6;dashed=1;dashPattern=1 4;endArrow=openThin;startArrow=none;rounded=0;" parent="U1KqUVC1e1E0VkJmuzpn-2" source="U1KqUVC1e1E0VkJmuzpn-93" target="U1KqUVC1e1E0VkJmuzpn-86" edge="1">
          <mxGeometry width="160" relative="1" as="geometry">
            <mxPoint x="167" y="167" as="sourcePoint" />
            <mxPoint x="576" y="639" as="targetPoint" />
          </mxGeometry>
        </mxCell>
        <mxCell id="U1KqUVC1e1E0VkJmuzpn-106" value="Store artifact metadata" style="shape=mxgraph.bpmn.task;whiteSpace=wrap;rectStyle=rounded;size=10;taskMarker=service;points=[[0.25,0,0],[0.5,0,0],[0.75,0,0],[1,0.25,0],[1,0.5,0],[1,0.75,0],[0.75,1,0],[0.5,1,0],[0.25,1,0],[0,0.75,0],[0,0.5,0],[0,0.25,0]];html=1;container=1;expand=0;collapsible=0;" parent="U1KqUVC1e1E0VkJmuzpn-2" vertex="1">
          <mxGeometry x="505" y="210" width="120" height="80" as="geometry" />
        </mxCell>
        <mxCell id="U1KqUVC1e1E0VkJmuzpn-107" value="" style="edgeStyle=elbowEdgeStyle;fontSize=12;html=1;endArrow=blockThin;endFill=1;rounded=0;" parent="U1KqUVC1e1E0VkJmuzpn-2" source="U1KqUVC1e1E0VkJmuzpn-87" target="U1KqUVC1e1E0VkJmuzpn-106" edge="1">
          <mxGeometry width="160" relative="1" as="geometry">
            <mxPoint x="-45" y="279" as="sourcePoint" />
            <mxPoint x="185" y="409" as="targetPoint" />
          </mxGeometry>
        </mxCell>
        <mxCell id="U1KqUVC1e1E0VkJmuzpn-111" value="" style="points=[[0.145,0.145,0],[0.5,0,0],[0.855,0.145,0],[1,0.5,0],[0.855,0.855,0],[0.5,1,0],[0.145,0.855,0],[0,0.5,0]];shape=mxgraph.bpmn.event;html=1;verticalLabelPosition=bottom;labelBackgroundColor=#ffffff;verticalAlign=top;align=center;perimeter=ellipsePerimeter;outlineConnect=0;aspect=fixed;outline=end;symbol=terminate2;" parent="U1KqUVC1e1E0VkJmuzpn-2" vertex="1">
          <mxGeometry x="655" y="225" width="50" height="50" as="geometry" />
        </mxCell>
        <mxCell id="U1KqUVC1e1E0VkJmuzpn-112" value="" style="edgeStyle=elbowEdgeStyle;fontSize=12;html=1;endArrow=blockThin;endFill=1;rounded=0;" parent="U1KqUVC1e1E0VkJmuzpn-2" source="U1KqUVC1e1E0VkJmuzpn-106" target="U1KqUVC1e1E0VkJmuzpn-111" edge="1">
          <mxGeometry width="160" relative="1" as="geometry">
            <mxPoint x="-45" y="279" as="sourcePoint" />
            <mxPoint x="185" y="409" as="targetPoint" />
          </mxGeometry>
        </mxCell>
        <mxCell id="U1KqUVC1e1E0VkJmuzpn-121" value="Tags are custom metadata, e.g. type of data, batch number etc." style="shape=note2;boundedLbl=1;whiteSpace=wrap;html=1;size=14;verticalAlign=top;align=left;fontSize=10;horizontal=1;" parent="U1KqUVC1e1E0VkJmuzpn-2" vertex="1">
          <mxGeometry x="400" y="12" width="80" height="98" as="geometry" />
        </mxCell>
        <mxCell id="U1KqUVC1e1E0VkJmuzpn-122" value="" style="endArrow=none;dashed=1;html=1;dashPattern=1 4;strokeWidth=1;rounded=0;" parent="U1KqUVC1e1E0VkJmuzpn-2" source="U1KqUVC1e1E0VkJmuzpn-90" target="U1KqUVC1e1E0VkJmuzpn-121" edge="1">
          <mxGeometry width="50" height="50" relative="1" as="geometry">
            <mxPoint x="360" y="407" as="sourcePoint" />
            <mxPoint x="410" y="357" as="targetPoint" />
          </mxGeometry>
        </mxCell>
        <mxCell id="U1KqUVC1e1E0VkJmuzpn-125" value="Data can be any AciesOne result, e.g. glass line allocation, balancing etc." style="shape=note2;boundedLbl=1;whiteSpace=wrap;html=1;size=14;verticalAlign=top;align=left;fontSize=10;horizontal=1;" parent="U1KqUVC1e1E0VkJmuzpn-2" vertex="1">
          <mxGeometry x="120" y="180" width="70" height="110" as="geometry" />
        </mxCell>
        <mxCell id="U1KqUVC1e1E0VkJmuzpn-126" value="" style="endArrow=none;dashed=1;html=1;dashPattern=1 4;strokeWidth=1;rounded=0;" parent="U1KqUVC1e1E0VkJmuzpn-2" source="c-N2GnIyo7EjWN-7pbOH-3" target="U1KqUVC1e1E0VkJmuzpn-125" edge="1">
          <mxGeometry width="50" height="50" relative="1" as="geometry">
            <mxPoint x="151.11587982832611" y="150" as="sourcePoint" />
            <mxPoint y="542" as="targetPoint" />
          </mxGeometry>
        </mxCell>
        <mxCell id="U1KqUVC1e1E0VkJmuzpn-169" value="" style="edgeStyle=elbowEdgeStyle;fontSize=12;html=1;endArrow=blockThin;endFill=1;rounded=0;" parent="U1KqUVC1e1E0VkJmuzpn-2" source="U1KqUVC1e1E0VkJmuzpn-86" target="U1KqUVC1e1E0VkJmuzpn-87" edge="1">
          <mxGeometry width="160" relative="1" as="geometry">
            <mxPoint x="50" y="297" as="sourcePoint" />
            <mxPoint x="280" y="427" as="targetPoint" />
          </mxGeometry>
        </mxCell>
        <mxCell id="c-N2GnIyo7EjWN-7pbOH-3" value="Get data" style="points=[[0.25,0,0],[0.5,0,0],[0.75,0,0],[1,0.25,0],[1,0.5,0],[1,0.75,0],[0.75,1,0],[0.5,1,0],[0.25,1,0],[0,0.75,0],[0,0.5,0],[0,0.25,0]];shape=mxgraph.bpmn.task;whiteSpace=wrap;rectStyle=rounded;size=10;html=1;container=1;expand=0;collapsible=0;taskMarker=abstract;" vertex="1" parent="U1KqUVC1e1E0VkJmuzpn-2">
          <mxGeometry x="110" y="70" width="120" height="80" as="geometry" />
        </mxCell>
        <mxCell id="c-N2GnIyo7EjWN-7pbOH-13" value="Data in prod-tables are not aware of batch context" style="shape=note2;boundedLbl=1;whiteSpace=wrap;html=1;size=14;verticalAlign=top;align=left;fontSize=10;horizontal=1;" vertex="1" parent="U1KqUVC1e1E0VkJmuzpn-2">
          <mxGeometry x="80" y="12" width="230" height="43.5" as="geometry" />
        </mxCell>
        <mxCell id="c-N2GnIyo7EjWN-7pbOH-14" value="" style="endArrow=none;dashed=1;html=1;dashPattern=1 4;strokeWidth=1;rounded=0;" edge="1" parent="U1KqUVC1e1E0VkJmuzpn-2" target="c-N2GnIyo7EjWN-7pbOH-13" source="c-N2GnIyo7EjWN-7pbOH-3">
          <mxGeometry width="50" height="50" relative="1" as="geometry">
            <mxPoint x="140" y="28" as="sourcePoint" />
            <mxPoint x="170" y="299" as="targetPoint" />
          </mxGeometry>
        </mxCell>
        <mxCell id="U1KqUVC1e1E0VkJmuzpn-146" value="Batch calculation" style="swimlane;startSize=20;horizontal=0;html=1;whiteSpace=wrap;" parent="U1KqUVC1e1E0VkJmuzpn-1" vertex="1">
          <mxGeometry x="20" y="320" width="1630" height="580" as="geometry" />
        </mxCell>
        <mxCell id="U1KqUVC1e1E0VkJmuzpn-147" value="" style="shape=mxgraph.bpmn.event;html=1;verticalLabelPosition=bottom;labelBackgroundColor=#ffffff;verticalAlign=top;align=center;outlineConnect=0;aspect=fixed;outline=standard;symbol=general;points=[[0.145,0.145,0],[0.5,0,0],[0.855,0.145,0],[1,0.5,0],[0.855,0.855,0],[0.5,1,0],[0.145,0.855,0],[0,0.5,0]];perimeter=ellipsePerimeter;" parent="U1KqUVC1e1E0VkJmuzpn-146" vertex="1">
          <mxGeometry x="40" y="101" width="50" height="50" as="geometry" />
        </mxCell>
        <mxCell id="U1KqUVC1e1E0VkJmuzpn-148" value="" style="edgeStyle=elbowEdgeStyle;fontSize=12;html=1;endArrow=blockThin;endFill=1;rounded=0;" parent="U1KqUVC1e1E0VkJmuzpn-146" source="c-N2GnIyo7EjWN-7pbOH-4" target="U1KqUVC1e1E0VkJmuzpn-185" edge="1">
          <mxGeometry width="160" relative="1" as="geometry">
            <mxPoint x="550" y="167" as="sourcePoint" />
            <mxPoint x="550" y="197" as="targetPoint" />
          </mxGeometry>
        </mxCell>
        <mxCell id="U1KqUVC1e1E0VkJmuzpn-153" value="" style="edgeStyle=elbowEdgeStyle;fontSize=12;html=1;endArrow=blockThin;endFill=1;rounded=0;" parent="U1KqUVC1e1E0VkJmuzpn-146" source="U1KqUVC1e1E0VkJmuzpn-147" target="c-N2GnIyo7EjWN-7pbOH-4" edge="1">
          <mxGeometry width="160" relative="1" as="geometry">
            <mxPoint x="640" y="434" as="sourcePoint" />
            <mxPoint x="550" y="127" as="targetPoint" />
          </mxGeometry>
        </mxCell>
        <mxCell id="U1KqUVC1e1E0VkJmuzpn-158" value="Artifact list" style="shape=mxgraph.bpmn.data;labelPosition=center;verticalLabelPosition=bottom;align=center;verticalAlign=top;whiteSpace=wrap;size=15;html=1;fontFamily=Helvetica;fontSize=12;fontColor=default;strokeColor=default;fillColor=default;" parent="U1KqUVC1e1E0VkJmuzpn-146" vertex="1">
          <mxGeometry x="990" y="225" width="30" height="40" as="geometry" />
        </mxCell>
        <mxCell id="U1KqUVC1e1E0VkJmuzpn-159" value="" style="fontSize=12;html=1;endFill=0;startFill=0;endSize=6;startSize=6;dashed=1;dashPattern=1 4;endArrow=openThin;startArrow=none;rounded=0;" parent="U1KqUVC1e1E0VkJmuzpn-146" source="c-N2GnIyo7EjWN-7pbOH-4" target="U1KqUVC1e1E0VkJmuzpn-158" edge="1">
          <mxGeometry width="160" relative="1" as="geometry">
            <mxPoint x="610" y="142.82417582417588" as="sourcePoint" />
            <mxPoint x="1003" y="656" as="targetPoint" />
          </mxGeometry>
        </mxCell>
        <mxCell id="U1KqUVC1e1E0VkJmuzpn-161" value="" style="shape=datastore;whiteSpace=wrap;html=1;labelPosition=center;verticalLabelPosition=bottom;align=center;verticalAlign=top;aspect=fixed;" parent="U1KqUVC1e1E0VkJmuzpn-146" vertex="1">
          <mxGeometry x="530" y="21" width="40" height="40" as="geometry" />
        </mxCell>
        <mxCell id="U1KqUVC1e1E0VkJmuzpn-162" value="" style="fontSize=12;html=1;endFill=0;startFill=0;endSize=6;startSize=6;dashed=1;dashPattern=1 4;endArrow=openThin;startArrow=none;rounded=0;elbow=vertical;" parent="U1KqUVC1e1E0VkJmuzpn-146" source="U1KqUVC1e1E0VkJmuzpn-161" target="c-N2GnIyo7EjWN-7pbOH-4" edge="1">
          <mxGeometry width="160" relative="1" as="geometry">
            <mxPoint x="268" y="71" as="sourcePoint" />
            <mxPoint x="527.7777777777778" y="87" as="targetPoint" />
          </mxGeometry>
        </mxCell>
        <mxCell id="U1KqUVC1e1E0VkJmuzpn-185" value="Select batches" style="points=[[0.25,0,0],[0.5,0,0],[0.75,0,0],[1,0.25,0],[1,0.5,0],[1,0.75,0],[0.75,1,0],[0.5,1,0],[0.25,1,0],[0,0.75,0],[0,0.5,0],[0,0.25,0]];shape=mxgraph.bpmn.task;whiteSpace=wrap;rectStyle=rounded;size=10;html=1;container=1;expand=0;collapsible=0;taskMarker=user;" parent="U1KqUVC1e1E0VkJmuzpn-146" vertex="1">
          <mxGeometry x="490" y="187" width="120" height="80" as="geometry" />
        </mxCell>
        <mxCell id="U1KqUVC1e1E0VkJmuzpn-186" value="" style="edgeStyle=elbowEdgeStyle;fontSize=12;html=1;endArrow=blockThin;endFill=1;rounded=0;" parent="U1KqUVC1e1E0VkJmuzpn-146" source="U1KqUVC1e1E0VkJmuzpn-185" target="U1KqUVC1e1E0VkJmuzpn-181" edge="1">
          <mxGeometry width="160" relative="1" as="geometry">
            <mxPoint x="580" y="434" as="sourcePoint" />
            <mxPoint x="600" y="197" as="targetPoint" />
          </mxGeometry>
        </mxCell>
        <mxCell id="U1KqUVC1e1E0VkJmuzpn-202" value="Batch list" style="shape=mxgraph.bpmn.data;labelPosition=center;verticalLabelPosition=bottom;align=center;verticalAlign=top;whiteSpace=wrap;size=15;html=1;fontFamily=Helvetica;fontSize=12;fontColor=default;strokeColor=default;fillColor=default;" parent="U1KqUVC1e1E0VkJmuzpn-146" vertex="1">
          <mxGeometry x="1040" y="499" width="30" height="40" as="geometry" />
        </mxCell>
        <mxCell id="U1KqUVC1e1E0VkJmuzpn-204" value="" style="fontSize=12;html=1;endFill=0;startFill=0;endSize=6;startSize=6;dashed=1;dashPattern=1 4;endArrow=openThin;startArrow=none;rounded=0;" parent="U1KqUVC1e1E0VkJmuzpn-146" source="U1KqUVC1e1E0VkJmuzpn-181" target="U1KqUVC1e1E0VkJmuzpn-202" edge="1">
          <mxGeometry width="160" relative="1" as="geometry">
            <mxPoint x="610" y="167" as="sourcePoint" />
            <mxPoint x="1003" y="656" as="targetPoint" />
          </mxGeometry>
        </mxCell>
        <mxCell id="U1KqUVC1e1E0VkJmuzpn-170" value="" style="points=[[0.145,0.145,0],[0.5,0,0],[0.855,0.145,0],[1,0.5,0],[0.855,0.855,0],[0.5,1,0],[0.145,0.855,0],[0,0.5,0]];shape=mxgraph.bpmn.event;html=1;verticalLabelPosition=bottom;labelBackgroundColor=#ffffff;verticalAlign=top;align=center;perimeter=ellipsePerimeter;outlineConnect=0;aspect=fixed;outline=catching;symbol=message;" parent="U1KqUVC1e1E0VkJmuzpn-146" vertex="1">
          <mxGeometry x="1125" y="398.5" width="50" height="50" as="geometry" />
        </mxCell>
        <mxCell id="U1KqUVC1e1E0VkJmuzpn-171" value="" style="fontSize=12;html=1;endArrow=blockThin;endFill=1;rounded=0;edgeStyle=orthogonalEdgeStyle;elbow=vertical;" parent="U1KqUVC1e1E0VkJmuzpn-146" source="U1KqUVC1e1E0VkJmuzpn-181" target="U1KqUVC1e1E0VkJmuzpn-177" edge="1">
          <mxGeometry width="160" relative="1" as="geometry">
            <mxPoint x="650" y="327" as="sourcePoint" />
            <mxPoint x="960" y="489" as="targetPoint" />
          </mxGeometry>
        </mxCell>
        <mxCell id="U1KqUVC1e1E0VkJmuzpn-177" value="&lt;span style=&quot;color: rgb(0, 0, 0); font-family: Helvetica; font-size: 12px; font-style: normal; font-variant-ligatures: normal; font-variant-caps: normal; font-weight: 400; letter-spacing: normal; orphans: 2; text-align: center; text-indent: 0px; text-transform: none; widows: 2; word-spacing: 0px; -webkit-text-stroke-width: 0px; background-color: rgb(251, 251, 251); text-decoration-thickness: initial; text-decoration-style: initial; text-decoration-color: initial; float: none; display: inline !important;&quot;&gt;Request batch calculation&lt;/span&gt;" style="points=[[0.25,0,0],[0.5,0,0],[0.75,0,0],[1,0.25,0],[1,0.5,0],[1,0.75,0],[0.75,1,0],[0.5,1,0],[0.25,1,0],[0,0.75,0],[0,0.5,0],[0,0.25,0]];shape=mxgraph.bpmn.task;whiteSpace=wrap;rectStyle=rounded;size=10;html=1;container=1;expand=0;collapsible=0;taskMarker=service;" parent="U1KqUVC1e1E0VkJmuzpn-146" vertex="1">
          <mxGeometry x="990" y="383.5" width="120" height="80" as="geometry" />
        </mxCell>
        <mxCell id="U1KqUVC1e1E0VkJmuzpn-208" value="" style="edgeStyle=elbowEdgeStyle;fontSize=12;html=1;endArrow=blockThin;endFill=1;rounded=0;" parent="U1KqUVC1e1E0VkJmuzpn-146" source="U1KqUVC1e1E0VkJmuzpn-177" target="U1KqUVC1e1E0VkJmuzpn-170" edge="1">
          <mxGeometry width="160" relative="1" as="geometry">
            <mxPoint x="680" y="170.5" as="sourcePoint" />
            <mxPoint x="680" y="200.5" as="targetPoint" />
          </mxGeometry>
        </mxCell>
        <mxCell id="U1KqUVC1e1E0VkJmuzpn-233" value="" style="points=[[0.145,0.145,0],[0.5,0,0],[0.855,0.145,0],[1,0.5,0],[0.855,0.855,0],[0.5,1,0],[0.145,0.855,0],[0,0.5,0]];shape=mxgraph.bpmn.event;html=1;verticalLabelPosition=bottom;labelBackgroundColor=#ffffff;verticalAlign=top;align=center;perimeter=ellipsePerimeter;outlineConnect=0;aspect=fixed;outline=end;symbol=terminate2;" parent="U1KqUVC1e1E0VkJmuzpn-146" vertex="1">
          <mxGeometry x="1474.995895895896" y="114" width="50" height="50" as="geometry" />
        </mxCell>
        <mxCell id="U1KqUVC1e1E0VkJmuzpn-234" value="" style="edgeStyle=elbowEdgeStyle;fontSize=12;html=1;endArrow=blockThin;endFill=1;rounded=0;" parent="U1KqUVC1e1E0VkJmuzpn-146" source="U1KqUVC1e1E0VkJmuzpn-170" target="U1KqUVC1e1E0VkJmuzpn-276" edge="1">
          <mxGeometry width="160" relative="1" as="geometry">
            <mxPoint x="680" y="170.5" as="sourcePoint" />
            <mxPoint x="1200" y="435" as="targetPoint" />
          </mxGeometry>
        </mxCell>
        <mxCell id="U1KqUVC1e1E0VkJmuzpn-244" value="" style="fontSize=12;html=1;endFill=0;startFill=0;endSize=6;startSize=6;dashed=1;dashPattern=1 4;endArrow=openThin;startArrow=none;rounded=0;" parent="U1KqUVC1e1E0VkJmuzpn-146" source="U1KqUVC1e1E0VkJmuzpn-202" target="U1KqUVC1e1E0VkJmuzpn-177" edge="1">
          <mxGeometry width="160" relative="1" as="geometry">
            <mxPoint x="550" y="167" as="sourcePoint" />
            <mxPoint x="943" y="656" as="targetPoint" />
          </mxGeometry>
        </mxCell>
        <mxCell id="U1KqUVC1e1E0VkJmuzpn-245" value="" style="fontSize=12;html=1;endFill=0;startFill=0;endSize=6;startSize=6;dashed=1;dashPattern=1 4;endArrow=openThin;startArrow=none;rounded=0;" parent="U1KqUVC1e1E0VkJmuzpn-146" source="U1KqUVC1e1E0VkJmuzpn-158" target="U1KqUVC1e1E0VkJmuzpn-177" edge="1">
          <mxGeometry width="160" relative="1" as="geometry">
            <mxPoint x="550" y="167" as="sourcePoint" />
            <mxPoint x="943" y="656" as="targetPoint" />
          </mxGeometry>
        </mxCell>
        <mxCell id="U1KqUVC1e1E0VkJmuzpn-248" value="" style="group" parent="U1KqUVC1e1E0VkJmuzpn-146" vertex="1" connectable="0">
          <mxGeometry x="490" y="287" width="470" height="273" as="geometry" />
        </mxCell>
        <mxCell id="U1KqUVC1e1E0VkJmuzpn-181" value="Prepare AciesCore batch id mappings" style="points=[[0.25,0,0],[0.5,0,0],[0.75,0,0],[1,0.25,0],[1,0.5,0],[1,0.75,0],[0.75,1,0],[0.5,1,0],[0.25,1,0],[0,0.75,0],[0,0.5,0],[0,0.25,0]];shape=mxgraph.bpmn.task;whiteSpace=wrap;rectStyle=rounded;size=10;html=1;container=0;expand=0;collapsible=0;taskMarker=abstract;isLoopMultiParallel=1;verticalAlign=top;" parent="U1KqUVC1e1E0VkJmuzpn-248" vertex="1">
          <mxGeometry width="470" height="273" as="geometry" />
        </mxCell>
        <mxCell id="U1KqUVC1e1E0VkJmuzpn-182" value="" style="shape=mxgraph.bpmn.event;html=1;verticalLabelPosition=bottom;labelBackgroundColor=#ffffff;verticalAlign=top;align=center;outlineConnect=0;aspect=fixed;outline=standard;symbol=general;points=[[0.145,0.145,0],[0.5,0,0],[0.855,0.145,0],[1,0.5,0],[0.855,0.855,0],[0.5,1,0],[0.145,0.855,0],[0,0.5,0]];perimeter=ellipsePerimeter;" parent="U1KqUVC1e1E0VkJmuzpn-248" vertex="1">
          <mxGeometry x="59.9944644644645" y="25" width="50" height="50" as="geometry" />
        </mxCell>
        <mxCell id="U1KqUVC1e1E0VkJmuzpn-183" value="" style="points=[[0.145,0.145,0],[0.5,0,0],[0.855,0.145,0],[1,0.5,0],[0.855,0.855,0],[0.5,1,0],[0.145,0.855,0],[0,0.5,0]];shape=mxgraph.bpmn.event;html=1;verticalLabelPosition=bottom;labelBackgroundColor=#ffffff;verticalAlign=top;align=center;perimeter=ellipsePerimeter;outlineConnect=0;aspect=fixed;outline=end;symbol=terminate2;" parent="U1KqUVC1e1E0VkJmuzpn-248" vertex="1">
          <mxGeometry x="399.99589589589584" y="25" width="50" height="50" as="geometry" />
        </mxCell>
        <mxCell id="U1KqUVC1e1E0VkJmuzpn-184" value="" style="points=[[0.145,0.145,0],[0.5,0,0],[0.855,0.145,0],[1,0.5,0],[0.855,0.855,0],[0.5,1,0],[0.145,0.855,0],[0,0.5,0]];shape=mxgraph.bpmn.event;html=1;verticalLabelPosition=bottom;labelBackgroundColor=#ffffff;verticalAlign=top;align=center;perimeter=ellipsePerimeter;outlineConnect=0;aspect=fixed;outline=catching;symbol=message;" parent="U1KqUVC1e1E0VkJmuzpn-248" vertex="1">
          <mxGeometry x="199.99844844844847" y="106.5" width="50" height="50" as="geometry" />
        </mxCell>
        <mxCell id="U1KqUVC1e1E0VkJmuzpn-187" value="Get batch by tag" style="shape=mxgraph.bpmn.task;whiteSpace=wrap;rectStyle=rounded;size=10;taskMarker=service;points=[[0.25,0,0],[0.5,0,0],[0.75,0,0],[1,0.25,0],[1,0.5,0],[1,0.75,0],[0.75,1,0],[0.5,1,0],[0.25,1,0],[0,0.75,0],[0,0.5,0],[0,0.25,0]];html=1;container=1;expand=0;collapsible=0;" parent="U1KqUVC1e1E0VkJmuzpn-248" vertex="1">
          <mxGeometry x="24.996486486486447" y="91.5" width="120" height="80" as="geometry" />
        </mxCell>
        <mxCell id="U1KqUVC1e1E0VkJmuzpn-188" value="" style="edgeStyle=elbowEdgeStyle;fontSize=12;html=1;endArrow=blockThin;endFill=1;rounded=0;" parent="U1KqUVC1e1E0VkJmuzpn-248" source="U1KqUVC1e1E0VkJmuzpn-182" target="U1KqUVC1e1E0VkJmuzpn-187" edge="1">
          <mxGeometry width="160" relative="1" as="geometry">
            <mxPoint x="345.1351351351351" y="-10" as="sourcePoint" />
            <mxPoint x="345.1351351351351" y="20" as="targetPoint" />
          </mxGeometry>
        </mxCell>
        <mxCell id="U1KqUVC1e1E0VkJmuzpn-189" value="" style="edgeStyle=elbowEdgeStyle;fontSize=12;html=1;endArrow=blockThin;endFill=1;rounded=0;" parent="U1KqUVC1e1E0VkJmuzpn-248" source="U1KqUVC1e1E0VkJmuzpn-187" target="U1KqUVC1e1E0VkJmuzpn-184" edge="1">
          <mxGeometry width="160" relative="1" as="geometry">
            <mxPoint x="345.1351351351351" y="-10" as="sourcePoint" />
            <mxPoint x="345.1351351351351" y="20" as="targetPoint" />
          </mxGeometry>
        </mxCell>
        <mxCell id="U1KqUVC1e1E0VkJmuzpn-190" value="" style="edgeStyle=elbowEdgeStyle;fontSize=12;html=1;endArrow=blockThin;endFill=1;rounded=0;" parent="U1KqUVC1e1E0VkJmuzpn-248" source="U1KqUVC1e1E0VkJmuzpn-199" target="U1KqUVC1e1E0VkJmuzpn-183" edge="1">
          <mxGeometry width="160" relative="1" as="geometry">
            <mxPoint x="345.1351351351351" y="-10" as="sourcePoint" />
            <mxPoint x="345.1351351351351" y="20" as="targetPoint" />
          </mxGeometry>
        </mxCell>
        <mxCell id="U1KqUVC1e1E0VkJmuzpn-191" value="" style="points=[[0.25,0.25,0],[0.5,0,0],[0.75,0.25,0],[1,0.5,0],[0.75,0.75,0],[0.5,1,0],[0.25,0.75,0],[0,0.5,0]];shape=mxgraph.bpmn.gateway2;html=1;verticalLabelPosition=bottom;labelBackgroundColor=#ffffff;verticalAlign=top;align=center;perimeter=rhombusPerimeter;outlineConnect=0;outline=none;symbol=none;gwType=exclusive;" parent="U1KqUVC1e1E0VkJmuzpn-248" vertex="1">
          <mxGeometry x="295" y="106.5" width="50" height="50" as="geometry" />
        </mxCell>
        <mxCell id="U1KqUVC1e1E0VkJmuzpn-193" value="" style="edgeStyle=elbowEdgeStyle;fontSize=12;html=1;endArrow=blockThin;endFill=1;rounded=0;" parent="U1KqUVC1e1E0VkJmuzpn-248" source="U1KqUVC1e1E0VkJmuzpn-184" target="U1KqUVC1e1E0VkJmuzpn-191" edge="1">
          <mxGeometry width="160" relative="1" as="geometry">
            <mxPoint x="573" y="-232" as="sourcePoint" />
            <mxPoint x="622" y="-232" as="targetPoint" />
          </mxGeometry>
        </mxCell>
        <mxCell id="U1KqUVC1e1E0VkJmuzpn-195" value="Create batch" style="shape=mxgraph.bpmn.task;whiteSpace=wrap;rectStyle=rounded;size=10;taskMarker=service;points=[[0.25,0,0],[0.5,0,0],[0.75,0,0],[1,0.25,0],[1,0.5,0],[1,0.75,0],[0.75,1,0],[0.5,1,0],[0.25,1,0],[0,0.75,0],[0,0.5,0],[0,0.25,0]];html=1;container=1;expand=0;collapsible=0;" parent="U1KqUVC1e1E0VkJmuzpn-248" vertex="1">
          <mxGeometry x="259.99648648648645" y="183" width="120" height="80" as="geometry" />
        </mxCell>
        <mxCell id="U1KqUVC1e1E0VkJmuzpn-196" value="none" style="edgeStyle=elbowEdgeStyle;fontSize=12;html=1;endArrow=blockThin;endFill=1;rounded=0;" parent="U1KqUVC1e1E0VkJmuzpn-248" source="U1KqUVC1e1E0VkJmuzpn-191" target="U1KqUVC1e1E0VkJmuzpn-195" edge="1">
          <mxGeometry width="160" relative="1" as="geometry">
            <mxPoint x="345.1351351351351" y="-10" as="sourcePoint" />
            <mxPoint x="345.1351351351351" y="20" as="targetPoint" />
          </mxGeometry>
        </mxCell>
        <mxCell id="U1KqUVC1e1E0VkJmuzpn-197" value="" style="points=[[0.145,0.145,0],[0.5,0,0],[0.855,0.145,0],[1,0.5,0],[0.855,0.855,0],[0.5,1,0],[0.145,0.855,0],[0,0.5,0]];shape=mxgraph.bpmn.event;html=1;verticalLabelPosition=bottom;labelBackgroundColor=#ffffff;verticalAlign=top;align=center;perimeter=ellipsePerimeter;outlineConnect=0;aspect=fixed;outline=catching;symbol=message;" parent="U1KqUVC1e1E0VkJmuzpn-248" vertex="1">
          <mxGeometry x="399.99844844844847" y="198" width="50" height="50" as="geometry" />
        </mxCell>
        <mxCell id="U1KqUVC1e1E0VkJmuzpn-198" value="" style="edgeStyle=elbowEdgeStyle;fontSize=12;html=1;endArrow=blockThin;endFill=1;rounded=0;" parent="U1KqUVC1e1E0VkJmuzpn-248" source="U1KqUVC1e1E0VkJmuzpn-195" target="U1KqUVC1e1E0VkJmuzpn-197" edge="1">
          <mxGeometry width="160" relative="1" as="geometry">
            <mxPoint x="345.1351351351351" y="-10" as="sourcePoint" />
            <mxPoint x="345.1351351351351" y="20" as="targetPoint" />
          </mxGeometry>
        </mxCell>
        <mxCell id="U1KqUVC1e1E0VkJmuzpn-199" value="" style="points=[[0.25,0.25,0],[0.5,0,0],[0.75,0.25,0],[1,0.5,0],[0.75,0.75,0],[0.5,1,0],[0.25,0.75,0],[0,0.5,0]];shape=mxgraph.bpmn.gateway2;html=1;verticalLabelPosition=bottom;labelBackgroundColor=#ffffff;verticalAlign=top;align=center;perimeter=rhombusPerimeter;outlineConnect=0;outline=none;symbol=none;gwType=exclusive;" parent="U1KqUVC1e1E0VkJmuzpn-248" vertex="1">
          <mxGeometry x="400" y="106.5" width="50" height="50" as="geometry" />
        </mxCell>
        <mxCell id="U1KqUVC1e1E0VkJmuzpn-200" value="one" style="edgeStyle=elbowEdgeStyle;fontSize=12;html=1;endArrow=blockThin;endFill=1;rounded=0;" parent="U1KqUVC1e1E0VkJmuzpn-248" source="U1KqUVC1e1E0VkJmuzpn-191" target="U1KqUVC1e1E0VkJmuzpn-199" edge="1">
          <mxGeometry width="160" relative="1" as="geometry">
            <mxPoint x="355" y="-375" as="sourcePoint" />
            <mxPoint x="492" y="-429" as="targetPoint" />
          </mxGeometry>
        </mxCell>
        <mxCell id="U1KqUVC1e1E0VkJmuzpn-201" value="" style="edgeStyle=elbowEdgeStyle;fontSize=12;html=1;endArrow=blockThin;endFill=1;rounded=0;" parent="U1KqUVC1e1E0VkJmuzpn-248" source="U1KqUVC1e1E0VkJmuzpn-197" target="U1KqUVC1e1E0VkJmuzpn-199" edge="1">
          <mxGeometry width="160" relative="1" as="geometry">
            <mxPoint x="355" y="-375" as="sourcePoint" />
            <mxPoint x="492" y="-429" as="targetPoint" />
          </mxGeometry>
        </mxCell>
        <mxCell id="c-N2GnIyo7EjWN-7pbOH-7" value="" style="points=[[0.145,0.145,0],[0.5,0,0],[0.855,0.145,0],[1,0.5,0],[0.855,0.855,0],[0.5,1,0],[0.145,0.855,0],[0,0.5,0]];shape=mxgraph.bpmn.event;html=1;verticalLabelPosition=bottom;labelBackgroundColor=#ffffff;verticalAlign=top;align=center;perimeter=ellipsePerimeter;outlineConnect=0;aspect=fixed;outline=end;symbol=error;" vertex="1" parent="U1KqUVC1e1E0VkJmuzpn-248">
          <mxGeometry x="295" y="25" width="50" height="50" as="geometry" />
        </mxCell>
        <mxCell id="c-N2GnIyo7EjWN-7pbOH-8" value="&amp;gt;1" style="edgeStyle=elbowEdgeStyle;fontSize=12;html=1;endArrow=blockThin;endFill=1;rounded=0;elbow=vertical;" edge="1" parent="U1KqUVC1e1E0VkJmuzpn-248" source="U1KqUVC1e1E0VkJmuzpn-191" target="c-N2GnIyo7EjWN-7pbOH-7">
          <mxGeometry width="160" relative="1" as="geometry">
            <mxPoint x="355" y="-375" as="sourcePoint" />
            <mxPoint x="492" y="-429" as="targetPoint" />
          </mxGeometry>
        </mxCell>
        <mxCell id="U1KqUVC1e1E0VkJmuzpn-268" value="" style="edgeStyle=elbowEdgeStyle;fontSize=12;html=1;endArrow=blockThin;endFill=1;rounded=0;" parent="U1KqUVC1e1E0VkJmuzpn-146" source="U1KqUVC1e1E0VkJmuzpn-287" target="U1KqUVC1e1E0VkJmuzpn-233" edge="1">
          <mxGeometry width="160" relative="1" as="geometry">
            <mxPoint x="1560" y="455" as="sourcePoint" />
            <mxPoint x="600" y="220.5" as="targetPoint" />
          </mxGeometry>
        </mxCell>
        <mxCell id="U1KqUVC1e1E0VkJmuzpn-287" value="&lt;span style=&quot;color: rgb(0, 0, 0); font-family: Helvetica; font-size: 12px; font-style: normal; font-variant-ligatures: normal; font-variant-caps: normal; font-weight: 400; letter-spacing: normal; orphans: 2; text-align: center; text-indent: 0px; text-transform: none; widows: 2; word-spacing: 0px; -webkit-text-stroke-width: 0px; background-color: rgb(251, 251, 251); text-decoration-thickness: initial; text-decoration-style: initial; text-decoration-color: initial; float: none; display: inline !important;&quot;&gt;Extract and store data&lt;/span&gt;" style="points=[[0.25,0,0],[0.5,0,0],[0.75,0,0],[1,0.25,0],[1,0.5,0],[1,0.75,0],[0.75,1,0],[0.5,1,0],[0.25,1,0],[0,0.75,0],[0,0.5,0],[0,0.25,0]];shape=mxgraph.bpmn.task;whiteSpace=wrap;rectStyle=rounded;size=10;html=1;container=1;expand=0;collapsible=0;taskMarker=service;" parent="U1KqUVC1e1E0VkJmuzpn-146" vertex="1">
          <mxGeometry x="1440" y="207" width="120" height="80" as="geometry" />
        </mxCell>
        <mxCell id="U1KqUVC1e1E0VkJmuzpn-288" value="" style="edgeStyle=elbowEdgeStyle;fontSize=12;html=1;endArrow=blockThin;endFill=1;rounded=0;" parent="U1KqUVC1e1E0VkJmuzpn-146" source="U1KqUVC1e1E0VkJmuzpn-276" target="U1KqUVC1e1E0VkJmuzpn-287" edge="1">
          <mxGeometry width="160" relative="1" as="geometry">
            <mxPoint x="1650" y="-83" as="sourcePoint" />
            <mxPoint x="1720" y="-83" as="targetPoint" />
          </mxGeometry>
        </mxCell>
        <mxCell id="U1KqUVC1e1E0VkJmuzpn-289" value="Prod*, ordlin" style="shape=datastore;whiteSpace=wrap;html=1;labelPosition=center;verticalLabelPosition=bottom;align=center;verticalAlign=top;aspect=fixed;" parent="U1KqUVC1e1E0VkJmuzpn-146" vertex="1">
          <mxGeometry x="1365" y="157" width="40" height="40" as="geometry" />
        </mxCell>
        <mxCell id="U1KqUVC1e1E0VkJmuzpn-290" value="" style="fontSize=12;html=1;endFill=0;startFill=0;endSize=6;startSize=6;dashed=1;dashPattern=1 4;endArrow=openThin;startArrow=none;rounded=0;elbow=vertical;" parent="U1KqUVC1e1E0VkJmuzpn-146" source="U1KqUVC1e1E0VkJmuzpn-287" target="U1KqUVC1e1E0VkJmuzpn-289" edge="1">
          <mxGeometry width="160" relative="1" as="geometry">
            <mxPoint x="1388" y="197" as="sourcePoint" />
            <mxPoint x="1128" y="181" as="targetPoint" />
          </mxGeometry>
        </mxCell>
        <mxCell id="c-N2GnIyo7EjWN-7pbOH-4" value="Prepare artifact references" style="points=[[0.25,0,0],[0.5,0,0],[0.75,0,0],[1,0.25,0],[1,0.5,0],[1,0.75,0],[0.75,1,0],[0.5,1,0],[0.25,1,0],[0,0.75,0],[0,0.5,0],[0,0.25,0]];shape=mxgraph.bpmn.task;whiteSpace=wrap;rectStyle=rounded;size=10;html=1;container=1;expand=0;collapsible=0;taskMarker=abstract;isLoopStandard=1;isLoopSub=1;" vertex="1" parent="U1KqUVC1e1E0VkJmuzpn-146">
          <mxGeometry x="490" y="86" width="120" height="80" as="geometry" />
        </mxCell>
        <mxCell id="c-N2GnIyo7EjWN-7pbOH-5" value="Latest artifact id of relevant data types." style="shape=note2;boundedLbl=1;whiteSpace=wrap;html=1;size=14;verticalAlign=top;align=left;fontSize=10;horizontal=1;" vertex="1" parent="U1KqUVC1e1E0VkJmuzpn-146">
          <mxGeometry x="630" y="21" width="80" height="73" as="geometry" />
        </mxCell>
        <mxCell id="c-N2GnIyo7EjWN-7pbOH-6" value="" style="endArrow=none;dashed=1;html=1;dashPattern=1 4;strokeWidth=1;rounded=0;" edge="1" parent="U1KqUVC1e1E0VkJmuzpn-146" target="c-N2GnIyo7EjWN-7pbOH-5" source="c-N2GnIyo7EjWN-7pbOH-4">
          <mxGeometry width="50" height="50" relative="1" as="geometry">
            <mxPoint x="610" y="88" as="sourcePoint" />
            <mxPoint x="640" y="366" as="targetPoint" />
          </mxGeometry>
        </mxCell>
        <mxCell id="c-N2GnIyo7EjWN-7pbOH-106" value="" style="group" vertex="1" connectable="0" parent="U1KqUVC1e1E0VkJmuzpn-146">
          <mxGeometry x="1190" y="220" width="400" height="310" as="geometry" />
        </mxCell>
        <mxCell id="c-N2GnIyo7EjWN-7pbOH-12" value="" style="points=[[0.145,0.145,0],[0.5,0,0],[0.855,0.145,0],[1,0.5,0],[0.855,0.855,0],[0.5,1,0],[0.145,0.855,0],[0,0.5,0]];shape=mxgraph.bpmn.event;html=1;verticalLabelPosition=bottom;labelBackgroundColor=#ffffff;verticalAlign=top;align=center;perimeter=ellipsePerimeter;outlineConnect=0;aspect=fixed;outline=catching;symbol=timer;" vertex="1" parent="c-N2GnIyo7EjWN-7pbOH-106">
          <mxGeometry x="31" width="50" height="50" as="geometry" />
        </mxCell>
        <mxCell id="c-N2GnIyo7EjWN-7pbOH-10" value="" style="edgeStyle=elbowEdgeStyle;fontSize=12;html=1;endArrow=blockThin;endFill=1;rounded=0;" edge="1" parent="c-N2GnIyo7EjWN-7pbOH-106" source="c-N2GnIyo7EjWN-7pbOH-12" target="U1KqUVC1e1E0VkJmuzpn-276">
          <mxGeometry width="160" relative="1" as="geometry">
            <mxPoint x="211" y="254" as="sourcePoint" />
            <mxPoint x="280" y="254" as="targetPoint" />
            <Array as="points">
              <mxPoint x="120" y="59" />
            </Array>
          </mxGeometry>
        </mxCell>
        <mxCell id="U1KqUVC1e1E0VkJmuzpn-276" value="" style="points=[[0.25,0,0],[0.5,0,0],[0.75,0,0],[1,0.25,0],[1,0.5,0],[1,0.75,0],[0.75,1,0],[0.5,1,0],[0.25,1,0],[0,0.75,0],[0,0.5,0],[0,0.25,0]];shape=mxgraph.bpmn.task;whiteSpace=wrap;rectStyle=rounded;size=10;html=1;container=0;expand=0;collapsible=0;taskMarker=abstract;" parent="c-N2GnIyo7EjWN-7pbOH-106" vertex="1">
          <mxGeometry y="97" width="400" height="213" as="geometry" />
        </mxCell>
        <mxCell id="U1KqUVC1e1E0VkJmuzpn-260" value="" style="points=[[0.145,0.145,0],[0.5,0,0],[0.855,0.145,0],[1,0.5,0],[0.855,0.855,0],[0.5,1,0],[0.145,0.855,0],[0,0.5,0]];shape=mxgraph.bpmn.event;html=1;verticalLabelPosition=bottom;labelBackgroundColor=#ffffff;verticalAlign=top;align=center;perimeter=ellipsePerimeter;outlineConnect=0;aspect=fixed;outline=standard;symbol=general;" parent="c-N2GnIyo7EjWN-7pbOH-106" vertex="1">
          <mxGeometry x="11" y="218.5" width="50" height="50" as="geometry" />
        </mxCell>
        <mxCell id="U1KqUVC1e1E0VkJmuzpn-262" value="Get plan execution status" style="shape=mxgraph.bpmn.task;whiteSpace=wrap;rectStyle=rounded;size=10;taskMarker=service;points=[[0.25,0,0],[0.5,0,0],[0.75,0,0],[1,0.25,0],[1,0.5,0],[1,0.75,0],[0.75,1,0],[0.5,1,0],[0.25,1,0],[0,0.75,0],[0,0.5,0],[0,0.25,0]];html=1;container=1;expand=0;collapsible=0;" parent="c-N2GnIyo7EjWN-7pbOH-106" vertex="1">
          <mxGeometry x="80.99648648648645" y="203.5" width="120" height="80" as="geometry" />
        </mxCell>
        <mxCell id="U1KqUVC1e1E0VkJmuzpn-263" value="" style="edgeStyle=elbowEdgeStyle;fontSize=12;html=1;endArrow=blockThin;endFill=1;rounded=0;" parent="c-N2GnIyo7EjWN-7pbOH-106" source="U1KqUVC1e1E0VkJmuzpn-262" target="U1KqUVC1e1E0VkJmuzpn-261" edge="1">
          <mxGeometry width="160" relative="1" as="geometry">
            <mxPoint x="396.135135135135" y="52.5" as="sourcePoint" />
            <mxPoint x="396.135135135135" y="82.5" as="targetPoint" />
          </mxGeometry>
        </mxCell>
        <mxCell id="U1KqUVC1e1E0VkJmuzpn-264" value="" style="edgeStyle=elbowEdgeStyle;fontSize=12;html=1;endArrow=blockThin;endFill=1;rounded=0;" parent="c-N2GnIyo7EjWN-7pbOH-106" source="U1KqUVC1e1E0VkJmuzpn-260" target="U1KqUVC1e1E0VkJmuzpn-262" edge="1">
          <mxGeometry width="160" relative="1" as="geometry">
            <mxPoint x="396.135135135135" y="102" as="sourcePoint" />
            <mxPoint x="396.135135135135" y="132" as="targetPoint" />
          </mxGeometry>
        </mxCell>
        <mxCell id="U1KqUVC1e1E0VkJmuzpn-272" value="" style="shape=mxgraph.bpmn.event;html=1;verticalLabelPosition=bottom;labelBackgroundColor=#ffffff;verticalAlign=top;align=center;outlineConnect=0;aspect=fixed;outline=end;symbol=error;points=[[0.145,0.145,0],[0.5,0,0],[0.855,0.145,0],[1,0.5,0],[0.855,0.855,0],[0.5,1,0],[0.145,0.855,0],[0,0.5,0]];perimeter=ellipsePerimeter;" parent="c-N2GnIyo7EjWN-7pbOH-106" vertex="1">
          <mxGeometry x="140" y="124" width="50" height="50" as="geometry" />
        </mxCell>
        <mxCell id="U1KqUVC1e1E0VkJmuzpn-273" value="not ready" style="edgeStyle=elbowEdgeStyle;fontSize=12;html=1;endArrow=blockThin;endFill=1;rounded=0;" parent="c-N2GnIyo7EjWN-7pbOH-106" source="U1KqUVC1e1E0VkJmuzpn-270" target="U1KqUVC1e1E0VkJmuzpn-272" edge="1">
          <mxGeometry width="160" relative="1" as="geometry">
            <mxPoint x="396.135135135135" y="72.5" as="sourcePoint" />
            <mxPoint x="396.135135135135" y="42.5" as="targetPoint" />
          </mxGeometry>
        </mxCell>
        <mxCell id="U1KqUVC1e1E0VkJmuzpn-261" value="" style="points=[[0.145,0.145,0],[0.5,0,0],[0.855,0.145,0],[1,0.5,0],[0.855,0.855,0],[0.5,1,0],[0.145,0.855,0],[0,0.5,0]];shape=mxgraph.bpmn.event;html=1;verticalLabelPosition=bottom;labelBackgroundColor=#ffffff;verticalAlign=top;align=center;perimeter=ellipsePerimeter;outlineConnect=0;aspect=fixed;outline=catching;symbol=message;" parent="c-N2GnIyo7EjWN-7pbOH-106" vertex="1">
          <mxGeometry x="269.99844844844847" y="218.5" width="50" height="50" as="geometry" />
        </mxCell>
        <mxCell id="U1KqUVC1e1E0VkJmuzpn-270" value="" style="points=[[0.25,0.25,0],[0.5,0,0],[0.75,0.25,0],[1,0.5,0],[0.75,0.75,0],[0.5,1,0],[0.25,0.75,0],[0,0.5,0]];shape=mxgraph.bpmn.gateway2;html=1;verticalLabelPosition=bottom;labelBackgroundColor=#ffffff;verticalAlign=top;align=center;perimeter=rhombusPerimeter;outlineConnect=0;outline=none;symbol=none;gwType=exclusive;" parent="c-N2GnIyo7EjWN-7pbOH-106" vertex="1">
          <mxGeometry x="270" y="124" width="50" height="50" as="geometry" />
        </mxCell>
        <mxCell id="U1KqUVC1e1E0VkJmuzpn-275" value="" style="edgeStyle=elbowEdgeStyle;fontSize=12;html=1;endArrow=blockThin;endFill=1;rounded=0;" parent="c-N2GnIyo7EjWN-7pbOH-106" source="U1KqUVC1e1E0VkJmuzpn-261" target="U1KqUVC1e1E0VkJmuzpn-270" edge="1">
          <mxGeometry width="160" relative="1" as="geometry">
            <mxPoint x="396.135135135135" y="52.5" as="sourcePoint" />
            <mxPoint x="396.135135135135" y="82.5" as="targetPoint" />
          </mxGeometry>
        </mxCell>
        <mxCell id="U1KqUVC1e1E0VkJmuzpn-265" value="" style="points=[[0.145,0.145,0],[0.5,0,0],[0.855,0.145,0],[1,0.5,0],[0.855,0.855,0],[0.5,1,0],[0.145,0.855,0],[0,0.5,0]];shape=mxgraph.bpmn.event;html=1;verticalLabelPosition=bottom;labelBackgroundColor=#ffffff;verticalAlign=top;align=center;perimeter=ellipsePerimeter;outlineConnect=0;aspect=fixed;outline=end;symbol=terminate2;" parent="c-N2GnIyo7EjWN-7pbOH-106" vertex="1">
          <mxGeometry x="339.99589589589596" y="168.5" width="50" height="50" as="geometry" />
        </mxCell>
        <mxCell id="U1KqUVC1e1E0VkJmuzpn-266" value="ready" style="edgeStyle=elbowEdgeStyle;fontSize=12;html=1;endArrow=blockThin;endFill=1;rounded=0;" parent="c-N2GnIyo7EjWN-7pbOH-106" source="U1KqUVC1e1E0VkJmuzpn-270" target="U1KqUVC1e1E0VkJmuzpn-265" edge="1">
          <mxGeometry width="160" relative="1" as="geometry">
            <mxPoint x="396.135135135135" y="42.5" as="sourcePoint" />
            <mxPoint x="396.135135135135" y="72.5" as="targetPoint" />
            <Array as="points">
              <mxPoint x="365" y="149" />
            </Array>
          </mxGeometry>
        </mxCell>
        <mxCell id="U1KqUVC1e1E0VkJmuzpn-109" value="" style="fontSize=12;html=1;endFill=0;startFill=0;endSize=6;startSize=6;dashed=1;dashPattern=1 4;endArrow=openThin;startArrow=none;rounded=0;elbow=vertical;" parent="U1KqUVC1e1E0VkJmuzpn-1" source="U1KqUVC1e1E0VkJmuzpn-106" target="U1KqUVC1e1E0VkJmuzpn-161" edge="1">
          <mxGeometry width="160" relative="1" as="geometry">
            <mxPoint x="567" y="89" as="sourcePoint" />
            <mxPoint x="263" y="38" as="targetPoint" />
          </mxGeometry>
        </mxCell>
        <mxCell id="U1KqUVC1e1E0VkJmuzpn-55" value="AciesCore" style="swimlane;html=1;childLayout=stackLayout;resizeParent=1;resizeParentMax=0;horizontal=0;startSize=20;horizontalStack=0;" parent="1" vertex="1">
          <mxGeometry y="1" width="1650" height="2180" as="geometry" />
        </mxCell>
        <mxCell id="U1KqUVC1e1E0VkJmuzpn-56" value="Artifact Handler" style="swimlane;html=1;startSize=20;horizontal=0;" parent="U1KqUVC1e1E0VkJmuzpn-55" vertex="1">
          <mxGeometry x="20" width="1630" height="320" as="geometry" />
        </mxCell>
        <mxCell id="U1KqUVC1e1E0VkJmuzpn-88" value="" style="points=[[0.145,0.145,0],[0.5,0,0],[0.855,0.145,0],[1,0.5,0],[0.855,0.855,0],[0.5,1,0],[0.145,0.855,0],[0,0.5,0]];shape=mxgraph.bpmn.event;html=1;verticalLabelPosition=bottom;labelBackgroundColor=#ffffff;verticalAlign=top;align=center;perimeter=ellipsePerimeter;outlineConnect=0;aspect=fixed;outline=standard;symbol=message;" parent="U1KqUVC1e1E0VkJmuzpn-56" vertex="1">
          <mxGeometry x="295" y="30" width="50" height="50" as="geometry" />
        </mxCell>
        <mxCell id="U1KqUVC1e1E0VkJmuzpn-98" value="" style="edgeStyle=elbowEdgeStyle;fontSize=12;html=1;endArrow=blockThin;endFill=1;rounded=0;" parent="U1KqUVC1e1E0VkJmuzpn-56" source="U1KqUVC1e1E0VkJmuzpn-88" target="U1KqUVC1e1E0VkJmuzpn-99" edge="1">
          <mxGeometry width="160" relative="1" as="geometry">
            <mxPoint x="80" y="55" as="sourcePoint" />
            <mxPoint x="450.0000000000002" y="242.00000000000023" as="targetPoint" />
          </mxGeometry>
        </mxCell>
        <mxCell id="U1KqUVC1e1E0VkJmuzpn-99" value="Create artifact" style="points=[[0.25,0,0],[0.5,0,0],[0.75,0,0],[1,0.25,0],[1,0.5,0],[1,0.75,0],[0.75,1,0],[0.5,1,0],[0.25,1,0],[0,0.75,0],[0,0.5,0],[0,0.25,0]];shape=mxgraph.bpmn.task;whiteSpace=wrap;rectStyle=rounded;size=10;taskMarker=abstract;" parent="U1KqUVC1e1E0VkJmuzpn-56" vertex="1">
          <mxGeometry x="260" y="105" width="120" height="80" as="geometry" />
        </mxCell>
        <mxCell id="U1KqUVC1e1E0VkJmuzpn-100" value="Return artifact" style="shape=mxgraph.bpmn.task;whiteSpace=wrap;rectStyle=rounded;size=10;taskMarker=send;points=[[0.25,0,0],[0.5,0,0],[0.75,0,0],[1,0.25,0],[1,0.5,0],[1,0.75,0],[0.75,1,0],[0.5,1,0],[0.25,1,0],[0,0.75,0],[0,0.5,0],[0,0.25,0]];html=1;container=1;expand=0;collapsible=0;" parent="U1KqUVC1e1E0VkJmuzpn-56" vertex="1">
          <mxGeometry x="395" y="105" width="120" height="80" as="geometry" />
        </mxCell>
        <mxCell id="U1KqUVC1e1E0VkJmuzpn-101" value="" style="edgeStyle=elbowEdgeStyle;fontSize=12;html=1;endArrow=blockThin;endFill=1;rounded=0;" parent="U1KqUVC1e1E0VkJmuzpn-56" source="U1KqUVC1e1E0VkJmuzpn-99" target="U1KqUVC1e1E0VkJmuzpn-114" edge="1">
          <mxGeometry width="160" relative="1" as="geometry">
            <mxPoint x="-20" y="155" as="sourcePoint" />
            <mxPoint x="10" y="155" as="targetPoint" />
          </mxGeometry>
        </mxCell>
        <mxCell id="U1KqUVC1e1E0VkJmuzpn-104" value="" style="shape=datastore;whiteSpace=wrap;html=1;labelPosition=center;verticalLabelPosition=bottom;align=center;verticalAlign=top;aspect=fixed;" parent="U1KqUVC1e1E0VkJmuzpn-56" vertex="1">
          <mxGeometry x="190" y="125" width="40" height="40" as="geometry" />
        </mxCell>
        <mxCell id="U1KqUVC1e1E0VkJmuzpn-105" value="" style="fontSize=12;html=1;endFill=0;startFill=0;endSize=6;startSize=6;dashed=1;dashPattern=1 4;endArrow=openThin;startArrow=none;rounded=0;elbow=vertical;" parent="U1KqUVC1e1E0VkJmuzpn-56" source="U1KqUVC1e1E0VkJmuzpn-99" target="U1KqUVC1e1E0VkJmuzpn-104" edge="1">
          <mxGeometry width="160" relative="1" as="geometry">
            <mxPoint x="302" y="210" as="sourcePoint" />
            <mxPoint x="-2" y="134" as="targetPoint" />
          </mxGeometry>
        </mxCell>
        <mxCell id="U1KqUVC1e1E0VkJmuzpn-114" value="Publish artifact" style="points=[[0.25,0,0],[0.5,0,0],[0.75,0,0],[1,0.25,0],[1,0.5,0],[1,0.75,0],[0.75,1,0],[0.5,1,0],[0.25,1,0],[0,0.75,0],[0,0.5,0],[0,0.25,0]];shape=mxgraph.bpmn.task;whiteSpace=wrap;rectStyle=rounded;size=10;taskMarker=abstract;" parent="U1KqUVC1e1E0VkJmuzpn-56" vertex="1">
          <mxGeometry x="260" y="210" width="120" height="80" as="geometry" />
        </mxCell>
        <mxCell id="U1KqUVC1e1E0VkJmuzpn-115" value="Artifact" style="points=[[0.145,0.145,0],[0.5,0,0],[0.855,0.145,0],[1,0.5,0],[0.855,0.855,0],[0.5,1,0],[0.145,0.855,0],[0,0.5,0]];shape=mxgraph.bpmn.event;html=1;verticalLabelPosition=bottom;labelBackgroundColor=#ffffff;verticalAlign=top;align=center;perimeter=ellipsePerimeter;outlineConnect=0;aspect=fixed;outline=throwing;symbol=signal;" parent="U1KqUVC1e1E0VkJmuzpn-56" vertex="1">
          <mxGeometry x="430" y="225" width="50" height="50" as="geometry" />
        </mxCell>
        <mxCell id="U1KqUVC1e1E0VkJmuzpn-116" value="" style="edgeStyle=elbowEdgeStyle;fontSize=12;html=1;endArrow=blockThin;endFill=1;rounded=0;" parent="U1KqUVC1e1E0VkJmuzpn-56" source="U1KqUVC1e1E0VkJmuzpn-114" target="U1KqUVC1e1E0VkJmuzpn-115" edge="1">
          <mxGeometry width="160" relative="1" as="geometry">
            <mxPoint x="90" y="65" as="sourcePoint" />
            <mxPoint x="120" y="65" as="targetPoint" />
          </mxGeometry>
        </mxCell>
        <mxCell id="U1KqUVC1e1E0VkJmuzpn-117" value="" style="edgeStyle=elbowEdgeStyle;fontSize=12;html=1;endArrow=blockThin;endFill=1;rounded=0;" parent="U1KqUVC1e1E0VkJmuzpn-56" source="U1KqUVC1e1E0VkJmuzpn-115" target="U1KqUVC1e1E0VkJmuzpn-100" edge="1">
          <mxGeometry width="160" relative="1" as="geometry">
            <mxPoint x="60" y="65" as="sourcePoint" />
            <mxPoint x="90" y="65" as="targetPoint" />
          </mxGeometry>
        </mxCell>
        <mxCell id="U1KqUVC1e1E0VkJmuzpn-118" value="" style="points=[[0.145,0.145,0],[0.5,0,0],[0.855,0.145,0],[1,0.5,0],[0.855,0.855,0],[0.5,1,0],[0.145,0.855,0],[0,0.5,0]];shape=mxgraph.bpmn.event;html=1;verticalLabelPosition=bottom;labelBackgroundColor=#ffffff;verticalAlign=top;align=center;perimeter=ellipsePerimeter;outlineConnect=0;aspect=fixed;outline=end;symbol=terminate2;" parent="U1KqUVC1e1E0VkJmuzpn-56" vertex="1">
          <mxGeometry x="500" y="30" width="50" height="50" as="geometry" />
        </mxCell>
        <mxCell id="U1KqUVC1e1E0VkJmuzpn-119" value="" style="edgeStyle=elbowEdgeStyle;fontSize=12;html=1;endArrow=blockThin;endFill=1;rounded=0;" parent="U1KqUVC1e1E0VkJmuzpn-56" source="U1KqUVC1e1E0VkJmuzpn-100" target="U1KqUVC1e1E0VkJmuzpn-118" edge="1">
          <mxGeometry width="160" relative="1" as="geometry">
            <mxPoint x="60" y="65" as="sourcePoint" />
            <mxPoint x="90" y="65" as="targetPoint" />
            <Array as="points">
              <mxPoint x="525" y="145" />
            </Array>
          </mxGeometry>
        </mxCell>
        <mxCell id="U1KqUVC1e1E0VkJmuzpn-176" value="Batch Handler" style="swimlane;startSize=20;horizontal=0;html=1;whiteSpace=wrap;" parent="U1KqUVC1e1E0VkJmuzpn-55" vertex="1">
          <mxGeometry x="20" y="320" width="1630" height="450" as="geometry" />
        </mxCell>
        <mxCell id="U1KqUVC1e1E0VkJmuzpn-165" value="" style="points=[[0.145,0.145,0],[0.5,0,0],[0.855,0.145,0],[1,0.5,0],[0.855,0.855,0],[0.5,1,0],[0.145,0.855,0],[0,0.5,0]];shape=mxgraph.bpmn.event;html=1;verticalLabelPosition=bottom;labelBackgroundColor=#ffffff;verticalAlign=top;align=center;perimeter=ellipsePerimeter;outlineConnect=0;aspect=fixed;outline=standard;symbol=message;" parent="U1KqUVC1e1E0VkJmuzpn-176" vertex="1">
          <mxGeometry x="550" y="40" width="50" height="50" as="geometry" />
        </mxCell>
        <mxCell id="U1KqUVC1e1E0VkJmuzpn-209" value="" style="points=[[0.145,0.145,0],[0.5,0,0],[0.855,0.145,0],[1,0.5,0],[0.855,0.855,0],[0.5,1,0],[0.145,0.855,0],[0,0.5,0]];shape=mxgraph.bpmn.event;html=1;verticalLabelPosition=bottom;labelBackgroundColor=#ffffff;verticalAlign=top;align=center;perimeter=ellipsePerimeter;outlineConnect=0;aspect=fixed;outline=standard;symbol=message;" parent="U1KqUVC1e1E0VkJmuzpn-176" vertex="1">
          <mxGeometry x="785" y="40" width="50" height="50" as="geometry" />
        </mxCell>
        <mxCell id="U1KqUVC1e1E0VkJmuzpn-210" value="Return batches" style="shape=mxgraph.bpmn.task;whiteSpace=wrap;rectStyle=rounded;size=10;taskMarker=send;points=[[0.25,0,0],[0.5,0,0],[0.75,0,0],[1,0.25,0],[1,0.5,0],[1,0.75,0],[0.75,1,0],[0.5,1,0],[0.25,1,0],[0,0.75,0],[0,0.5,0],[0,0.25,0]];html=1;container=1;expand=0;collapsible=0;" parent="U1KqUVC1e1E0VkJmuzpn-176" vertex="1">
          <mxGeometry x="655" y="130" width="120" height="80" as="geometry" />
        </mxCell>
        <mxCell id="U1KqUVC1e1E0VkJmuzpn-211" value="Return batch" style="shape=mxgraph.bpmn.task;whiteSpace=wrap;rectStyle=rounded;size=10;taskMarker=send;points=[[0.25,0,0],[0.5,0,0],[0.75,0,0],[1,0.25,0],[1,0.5,0],[1,0.75,0],[0.75,1,0],[0.5,1,0],[0.25,1,0],[0,0.75,0],[0,0.5,0],[0,0.25,0]];html=1;container=1;expand=0;collapsible=0;" parent="U1KqUVC1e1E0VkJmuzpn-176" vertex="1">
          <mxGeometry x="855" y="25" width="120" height="80" as="geometry" />
        </mxCell>
        <mxCell id="U1KqUVC1e1E0VkJmuzpn-212" value="" style="edgeStyle=elbowEdgeStyle;fontSize=12;html=1;endArrow=blockThin;endFill=1;rounded=0;" parent="U1KqUVC1e1E0VkJmuzpn-176" source="U1KqUVC1e1E0VkJmuzpn-209" target="U1KqUVC1e1E0VkJmuzpn-213" edge="1">
          <mxGeometry width="160" relative="1" as="geometry">
            <mxPoint x="870" y="20" as="sourcePoint" />
            <mxPoint x="1000.0000000000002" y="182.00000000000023" as="targetPoint" />
            <Array as="points">
              <mxPoint x="810" y="113" />
            </Array>
          </mxGeometry>
        </mxCell>
        <mxCell id="U1KqUVC1e1E0VkJmuzpn-213" value="Create batch" style="points=[[0.25,0,0],[0.5,0,0],[0.75,0,0],[1,0.25,0],[1,0.5,0],[1,0.75,0],[0.75,1,0],[0.5,1,0],[0.25,1,0],[0,0.75,0],[0,0.5,0],[0,0.25,0]];shape=mxgraph.bpmn.task;whiteSpace=wrap;rectStyle=rounded;size=10;taskMarker=abstract;" parent="U1KqUVC1e1E0VkJmuzpn-176" vertex="1">
          <mxGeometry x="750" y="240" width="120" height="80" as="geometry" />
        </mxCell>
        <mxCell id="U1KqUVC1e1E0VkJmuzpn-214" value="" style="edgeStyle=elbowEdgeStyle;fontSize=12;html=1;endArrow=blockThin;endFill=1;rounded=0;" parent="U1KqUVC1e1E0VkJmuzpn-176" source="U1KqUVC1e1E0VkJmuzpn-213" target="U1KqUVC1e1E0VkJmuzpn-215" edge="1">
          <mxGeometry width="160" relative="1" as="geometry">
            <mxPoint x="530" y="95" as="sourcePoint" />
            <mxPoint x="560" y="95" as="targetPoint" />
          </mxGeometry>
        </mxCell>
        <mxCell id="U1KqUVC1e1E0VkJmuzpn-215" value="Publish batch" style="points=[[0.25,0,0],[0.5,0,0],[0.75,0,0],[1,0.25,0],[1,0.5,0],[1,0.75,0],[0.75,1,0],[0.5,1,0],[0.25,1,0],[0,0.75,0],[0,0.5,0],[0,0.25,0]];shape=mxgraph.bpmn.task;whiteSpace=wrap;rectStyle=rounded;size=10;taskMarker=abstract;" parent="U1KqUVC1e1E0VkJmuzpn-176" vertex="1">
          <mxGeometry x="750" y="340" width="120" height="80" as="geometry" />
        </mxCell>
        <mxCell id="U1KqUVC1e1E0VkJmuzpn-216" value="Batch" style="points=[[0.145,0.145,0],[0.5,0,0],[0.855,0.145,0],[1,0.5,0],[0.855,0.855,0],[0.5,1,0],[0.145,0.855,0],[0,0.5,0]];shape=mxgraph.bpmn.event;html=1;verticalLabelPosition=bottom;labelBackgroundColor=#ffffff;verticalAlign=top;align=center;perimeter=ellipsePerimeter;outlineConnect=0;aspect=fixed;outline=throwing;symbol=signal;" parent="U1KqUVC1e1E0VkJmuzpn-176" vertex="1">
          <mxGeometry x="890" y="355" width="50" height="50" as="geometry" />
        </mxCell>
        <mxCell id="U1KqUVC1e1E0VkJmuzpn-217" value="" style="edgeStyle=elbowEdgeStyle;fontSize=12;html=1;endArrow=blockThin;endFill=1;rounded=0;" parent="U1KqUVC1e1E0VkJmuzpn-176" source="U1KqUVC1e1E0VkJmuzpn-215" target="U1KqUVC1e1E0VkJmuzpn-216" edge="1">
          <mxGeometry width="160" relative="1" as="geometry">
            <mxPoint x="640" y="5" as="sourcePoint" />
            <mxPoint x="670" y="5" as="targetPoint" />
          </mxGeometry>
        </mxCell>
        <mxCell id="U1KqUVC1e1E0VkJmuzpn-218" value="" style="edgeStyle=elbowEdgeStyle;fontSize=12;html=1;endArrow=blockThin;endFill=1;rounded=0;" parent="U1KqUVC1e1E0VkJmuzpn-176" source="U1KqUVC1e1E0VkJmuzpn-216" target="U1KqUVC1e1E0VkJmuzpn-211" edge="1">
          <mxGeometry width="160" relative="1" as="geometry">
            <mxPoint x="640" y="5" as="sourcePoint" />
            <mxPoint x="1035" y="125" as="targetPoint" />
          </mxGeometry>
        </mxCell>
        <mxCell id="U1KqUVC1e1E0VkJmuzpn-219" value="" style="points=[[0.145,0.145,0],[0.5,0,0],[0.855,0.145,0],[1,0.5,0],[0.855,0.855,0],[0.5,1,0],[0.145,0.855,0],[0,0.5,0]];shape=mxgraph.bpmn.event;html=1;verticalLabelPosition=bottom;labelBackgroundColor=#ffffff;verticalAlign=top;align=center;perimeter=ellipsePerimeter;outlineConnect=0;aspect=fixed;outline=end;symbol=terminate2;" parent="U1KqUVC1e1E0VkJmuzpn-176" vertex="1">
          <mxGeometry x="930" y="142" width="50" height="50" as="geometry" />
        </mxCell>
        <mxCell id="U1KqUVC1e1E0VkJmuzpn-220" value="" style="edgeStyle=elbowEdgeStyle;fontSize=12;html=1;endArrow=blockThin;endFill=1;rounded=0;" parent="U1KqUVC1e1E0VkJmuzpn-176" source="U1KqUVC1e1E0VkJmuzpn-211" target="U1KqUVC1e1E0VkJmuzpn-219" edge="1">
          <mxGeometry width="160" relative="1" as="geometry">
            <mxPoint x="640" y="5" as="sourcePoint" />
            <mxPoint x="1035" y="125" as="targetPoint" />
          </mxGeometry>
        </mxCell>
        <mxCell id="U1KqUVC1e1E0VkJmuzpn-223" value="Get batches (by tags)" style="points=[[0.25,0,0],[0.5,0,0],[0.75,0,0],[1,0.25,0],[1,0.5,0],[1,0.75,0],[0.75,1,0],[0.5,1,0],[0.25,1,0],[0,0.75,0],[0,0.5,0],[0,0.25,0]];shape=mxgraph.bpmn.task;whiteSpace=wrap;rectStyle=rounded;size=10;taskMarker=abstract;" parent="U1KqUVC1e1E0VkJmuzpn-176" vertex="1">
          <mxGeometry x="515" y="130" width="120" height="80" as="geometry" />
        </mxCell>
        <mxCell id="U1KqUVC1e1E0VkJmuzpn-224" value="" style="edgeStyle=elbowEdgeStyle;fontSize=12;html=1;endArrow=blockThin;endFill=1;rounded=0;" parent="U1KqUVC1e1E0VkJmuzpn-176" source="U1KqUVC1e1E0VkJmuzpn-165" target="U1KqUVC1e1E0VkJmuzpn-223" edge="1">
          <mxGeometry width="160" relative="1" as="geometry">
            <mxPoint x="860" y="20" as="sourcePoint" />
            <mxPoint x="990.0000000000002" y="182.00000000000023" as="targetPoint" />
          </mxGeometry>
        </mxCell>
        <mxCell id="U1KqUVC1e1E0VkJmuzpn-225" value="" style="shape=datastore;whiteSpace=wrap;html=1;labelPosition=center;verticalLabelPosition=bottom;align=center;verticalAlign=top;aspect=fixed;" parent="U1KqUVC1e1E0VkJmuzpn-176" vertex="1">
          <mxGeometry x="630" y="65" width="40" height="40" as="geometry" />
        </mxCell>
        <mxCell id="U1KqUVC1e1E0VkJmuzpn-226" value="" style="fontSize=12;html=1;endFill=0;startFill=0;endSize=6;startSize=6;dashed=1;dashPattern=1 4;endArrow=openThin;startArrow=none;rounded=0;elbow=vertical;" parent="U1KqUVC1e1E0VkJmuzpn-176" source="U1KqUVC1e1E0VkJmuzpn-225" target="U1KqUVC1e1E0VkJmuzpn-223" edge="1">
          <mxGeometry width="160" relative="1" as="geometry">
            <mxPoint x="238" y="114" as="sourcePoint" />
            <mxPoint x="520" y="130" as="targetPoint" />
          </mxGeometry>
        </mxCell>
        <mxCell id="U1KqUVC1e1E0VkJmuzpn-227" value="" style="edgeStyle=elbowEdgeStyle;fontSize=12;html=1;endArrow=blockThin;endFill=1;rounded=0;" parent="U1KqUVC1e1E0VkJmuzpn-176" source="U1KqUVC1e1E0VkJmuzpn-223" target="U1KqUVC1e1E0VkJmuzpn-210" edge="1">
          <mxGeometry width="160" relative="1" as="geometry">
            <mxPoint x="860" y="20" as="sourcePoint" />
            <mxPoint x="990.0000000000002" y="182.00000000000023" as="targetPoint" />
          </mxGeometry>
        </mxCell>
        <mxCell id="U1KqUVC1e1E0VkJmuzpn-228" value="" style="shape=datastore;whiteSpace=wrap;html=1;labelPosition=center;verticalLabelPosition=bottom;align=center;verticalAlign=top;aspect=fixed;" parent="U1KqUVC1e1E0VkJmuzpn-176" vertex="1">
          <mxGeometry x="690" y="230" width="40" height="40" as="geometry" />
        </mxCell>
        <mxCell id="U1KqUVC1e1E0VkJmuzpn-229" value="" style="fontSize=12;html=1;endFill=0;startFill=0;endSize=6;startSize=6;dashed=1;dashPattern=1 4;endArrow=openThin;startArrow=none;rounded=0;elbow=vertical;" parent="U1KqUVC1e1E0VkJmuzpn-176" source="U1KqUVC1e1E0VkJmuzpn-213" target="U1KqUVC1e1E0VkJmuzpn-228" edge="1">
          <mxGeometry width="160" relative="1" as="geometry">
            <mxPoint x="650" y="320" as="sourcePoint" />
            <mxPoint x="278" y="304" as="targetPoint" />
          </mxGeometry>
        </mxCell>
        <mxCell id="U1KqUVC1e1E0VkJmuzpn-127" value="Plan Handler" style="swimlane;html=1;startSize=20;horizontal=0;" parent="U1KqUVC1e1E0VkJmuzpn-55" vertex="1">
          <mxGeometry x="20" y="770" width="1630" height="550" as="geometry" />
        </mxCell>
        <mxCell id="U1KqUVC1e1E0VkJmuzpn-179" value="" style="points=[[0.145,0.145,0],[0.5,0,0],[0.855,0.145,0],[1,0.5,0],[0.855,0.855,0],[0.5,1,0],[0.145,0.855,0],[0,0.5,0]];shape=mxgraph.bpmn.event;html=1;verticalLabelPosition=bottom;labelBackgroundColor=#ffffff;verticalAlign=top;align=center;perimeter=ellipsePerimeter;outlineConnect=0;aspect=fixed;outline=standard;symbol=message;" parent="U1KqUVC1e1E0VkJmuzpn-127" vertex="1">
          <mxGeometry x="985" y="50" width="50" height="50" as="geometry" />
        </mxCell>
        <mxCell id="U1KqUVC1e1E0VkJmuzpn-230" value="Return plan" style="shape=mxgraph.bpmn.task;whiteSpace=wrap;rectStyle=rounded;size=10;taskMarker=send;points=[[0.25,0,0],[0.5,0,0],[0.75,0,0],[1,0.25,0],[1,0.5,0],[1,0.75,0],[0.75,1,0],[0.5,1,0],[0.25,1,0],[0,0.75,0],[0,0.5,0],[0,0.25,0]];html=1;container=1;expand=0;collapsible=0;" parent="U1KqUVC1e1E0VkJmuzpn-127" vertex="1">
          <mxGeometry x="1090" y="120" width="120" height="80" as="geometry" />
        </mxCell>
        <mxCell id="U1KqUVC1e1E0VkJmuzpn-231" value="" style="points=[[0.145,0.145,0],[0.5,0,0],[0.855,0.145,0],[1,0.5,0],[0.855,0.855,0],[0.5,1,0],[0.145,0.855,0],[0,0.5,0]];shape=mxgraph.bpmn.event;html=1;verticalLabelPosition=bottom;labelBackgroundColor=#ffffff;verticalAlign=top;align=center;perimeter=ellipsePerimeter;outlineConnect=0;aspect=fixed;outline=end;symbol=terminate2;" parent="U1KqUVC1e1E0VkJmuzpn-127" vertex="1">
          <mxGeometry x="1240" y="135" width="50" height="50" as="geometry" />
        </mxCell>
        <mxCell id="U1KqUVC1e1E0VkJmuzpn-232" value="" style="edgeStyle=elbowEdgeStyle;fontSize=12;html=1;endArrow=blockThin;endFill=1;rounded=0;" parent="U1KqUVC1e1E0VkJmuzpn-127" source="U1KqUVC1e1E0VkJmuzpn-230" target="U1KqUVC1e1E0VkJmuzpn-231" edge="1">
          <mxGeometry width="160" relative="1" as="geometry">
            <mxPoint x="975" y="60" as="sourcePoint" />
            <mxPoint x="1370" y="180" as="targetPoint" />
          </mxGeometry>
        </mxCell>
        <mxCell id="U1KqUVC1e1E0VkJmuzpn-235" value="Create plan" style="points=[[0.25,0,0],[0.5,0,0],[0.75,0,0],[1,0.25,0],[1,0.5,0],[1,0.75,0],[0.75,1,0],[0.5,1,0],[0.25,1,0],[0,0.75,0],[0,0.5,0],[0,0.25,0]];shape=mxgraph.bpmn.task;whiteSpace=wrap;rectStyle=rounded;size=10;taskMarker=abstract;" parent="U1KqUVC1e1E0VkJmuzpn-127" vertex="1">
          <mxGeometry x="950" y="120" width="120" height="80" as="geometry" />
        </mxCell>
        <mxCell id="U1KqUVC1e1E0VkJmuzpn-236" value="" style="edgeStyle=elbowEdgeStyle;fontSize=12;html=1;endArrow=blockThin;endFill=1;rounded=0;" parent="U1KqUVC1e1E0VkJmuzpn-127" source="U1KqUVC1e1E0VkJmuzpn-235" target="U1KqUVC1e1E0VkJmuzpn-237" edge="1">
          <mxGeometry width="160" relative="1" as="geometry">
            <mxPoint x="870" y="-125" as="sourcePoint" />
            <mxPoint x="900" y="-125" as="targetPoint" />
          </mxGeometry>
        </mxCell>
        <mxCell id="U1KqUVC1e1E0VkJmuzpn-237" value="Publish plan" style="points=[[0.25,0,0],[0.5,0,0],[0.75,0,0],[1,0.25,0],[1,0.5,0],[1,0.75,0],[0.75,1,0],[0.5,1,0],[0.25,1,0],[0,0.75,0],[0,0.5,0],[0,0.25,0]];shape=mxgraph.bpmn.task;whiteSpace=wrap;rectStyle=rounded;size=10;taskMarker=abstract;" parent="U1KqUVC1e1E0VkJmuzpn-127" vertex="1">
          <mxGeometry x="950" y="220" width="120" height="80" as="geometry" />
        </mxCell>
        <mxCell id="U1KqUVC1e1E0VkJmuzpn-238" value="Plan" style="points=[[0.145,0.145,0],[0.5,0,0],[0.855,0.145,0],[1,0.5,0],[0.855,0.855,0],[0.5,1,0],[0.145,0.855,0],[0,0.5,0]];shape=mxgraph.bpmn.event;html=1;verticalLabelPosition=bottom;labelBackgroundColor=#ffffff;verticalAlign=top;align=center;perimeter=ellipsePerimeter;outlineConnect=0;aspect=fixed;outline=throwing;symbol=signal;" parent="U1KqUVC1e1E0VkJmuzpn-127" vertex="1">
          <mxGeometry x="985" y="345" width="50" height="50" as="geometry" />
        </mxCell>
        <mxCell id="U1KqUVC1e1E0VkJmuzpn-239" value="" style="edgeStyle=elbowEdgeStyle;fontSize=12;html=1;endArrow=blockThin;endFill=1;rounded=0;" parent="U1KqUVC1e1E0VkJmuzpn-127" source="U1KqUVC1e1E0VkJmuzpn-237" target="U1KqUVC1e1E0VkJmuzpn-238" edge="1">
          <mxGeometry width="160" relative="1" as="geometry">
            <mxPoint x="980" y="-215" as="sourcePoint" />
            <mxPoint x="1010" y="-215" as="targetPoint" />
          </mxGeometry>
        </mxCell>
        <mxCell id="U1KqUVC1e1E0VkJmuzpn-240" value="" style="shape=datastore;whiteSpace=wrap;html=1;labelPosition=center;verticalLabelPosition=bottom;align=center;verticalAlign=top;aspect=fixed;" parent="U1KqUVC1e1E0VkJmuzpn-127" vertex="1">
          <mxGeometry x="910" y="50" width="40" height="40" as="geometry" />
        </mxCell>
        <mxCell id="U1KqUVC1e1E0VkJmuzpn-241" value="" style="fontSize=12;html=1;endFill=0;startFill=0;endSize=6;startSize=6;dashed=1;dashPattern=1 4;endArrow=openThin;startArrow=none;rounded=0;elbow=vertical;" parent="U1KqUVC1e1E0VkJmuzpn-127" source="U1KqUVC1e1E0VkJmuzpn-235" target="U1KqUVC1e1E0VkJmuzpn-240" edge="1">
          <mxGeometry width="160" relative="1" as="geometry">
            <mxPoint x="990" y="100" as="sourcePoint" />
            <mxPoint x="618" y="84" as="targetPoint" />
          </mxGeometry>
        </mxCell>
        <mxCell id="U1KqUVC1e1E0VkJmuzpn-242" value="" style="edgeStyle=elbowEdgeStyle;fontSize=12;html=1;endArrow=blockThin;endFill=1;rounded=0;" parent="U1KqUVC1e1E0VkJmuzpn-127" source="U1KqUVC1e1E0VkJmuzpn-179" target="U1KqUVC1e1E0VkJmuzpn-235" edge="1">
          <mxGeometry width="160" relative="1" as="geometry">
            <mxPoint x="870" y="-125" as="sourcePoint" />
            <mxPoint x="900" y="-125" as="targetPoint" />
          </mxGeometry>
        </mxCell>
        <mxCell id="U1KqUVC1e1E0VkJmuzpn-243" value="" style="edgeStyle=elbowEdgeStyle;fontSize=12;html=1;endArrow=blockThin;endFill=1;rounded=0;" parent="U1KqUVC1e1E0VkJmuzpn-127" source="U1KqUVC1e1E0VkJmuzpn-238" target="U1KqUVC1e1E0VkJmuzpn-249" edge="1">
          <mxGeometry width="160" relative="1" as="geometry">
            <mxPoint x="980" y="-215" as="sourcePoint" />
            <mxPoint x="1010" y="-215" as="targetPoint" />
          </mxGeometry>
        </mxCell>
        <mxCell id="U1KqUVC1e1E0VkJmuzpn-249" value="Create plan execution" style="points=[[0.25,0,0],[0.5,0,0],[0.75,0,0],[1,0.25,0],[1,0.5,0],[1,0.75,0],[0.75,1,0],[0.5,1,0],[0.25,1,0],[0,0.75,0],[0,0.5,0],[0,0.25,0]];shape=mxgraph.bpmn.task;whiteSpace=wrap;rectStyle=rounded;size=10;taskMarker=abstract;" parent="U1KqUVC1e1E0VkJmuzpn-127" vertex="1">
          <mxGeometry x="1210" y="330" width="120" height="80" as="geometry" />
        </mxCell>
        <mxCell id="U1KqUVC1e1E0VkJmuzpn-250" value="PlanExecution" style="points=[[0.145,0.145,0],[0.5,0,0],[0.855,0.145,0],[1,0.5,0],[0.855,0.855,0],[0.5,1,0],[0.145,0.855,0],[0,0.5,0]];shape=mxgraph.bpmn.event;html=1;verticalLabelPosition=bottom;labelBackgroundColor=#ffffff;verticalAlign=top;align=center;perimeter=ellipsePerimeter;outlineConnect=0;aspect=fixed;outline=throwing;symbol=signal;" parent="U1KqUVC1e1E0VkJmuzpn-127" vertex="1">
          <mxGeometry x="1120" y="235" width="50" height="50" as="geometry" />
        </mxCell>
        <mxCell id="U1KqUVC1e1E0VkJmuzpn-251" value="" style="edgeStyle=elbowEdgeStyle;fontSize=12;html=1;endArrow=blockThin;endFill=1;rounded=0;" parent="U1KqUVC1e1E0VkJmuzpn-127" source="U1KqUVC1e1E0VkJmuzpn-253" target="U1KqUVC1e1E0VkJmuzpn-250" edge="1">
          <mxGeometry width="160" relative="1" as="geometry">
            <mxPoint x="980" y="-215" as="sourcePoint" />
            <mxPoint x="1010" y="-215" as="targetPoint" />
          </mxGeometry>
        </mxCell>
        <mxCell id="U1KqUVC1e1E0VkJmuzpn-252" value="" style="edgeStyle=elbowEdgeStyle;fontSize=12;html=1;endArrow=blockThin;endFill=1;rounded=0;" parent="U1KqUVC1e1E0VkJmuzpn-127" source="U1KqUVC1e1E0VkJmuzpn-250" target="U1KqUVC1e1E0VkJmuzpn-230" edge="1">
          <mxGeometry width="160" relative="1" as="geometry">
            <mxPoint x="980" y="-215" as="sourcePoint" />
            <mxPoint x="1010" y="-215" as="targetPoint" />
          </mxGeometry>
        </mxCell>
        <mxCell id="U1KqUVC1e1E0VkJmuzpn-253" value="Publish plan execution" style="points=[[0.25,0,0],[0.5,0,0],[0.75,0,0],[1,0.25,0],[1,0.5,0],[1,0.75,0],[0.75,1,0],[0.5,1,0],[0.25,1,0],[0,0.75,0],[0,0.5,0],[0,0.25,0]];shape=mxgraph.bpmn.task;whiteSpace=wrap;rectStyle=rounded;size=10;taskMarker=abstract;" parent="U1KqUVC1e1E0VkJmuzpn-127" vertex="1">
          <mxGeometry x="1210" y="220" width="120" height="80" as="geometry" />
        </mxCell>
        <mxCell id="U1KqUVC1e1E0VkJmuzpn-254" value="" style="edgeStyle=elbowEdgeStyle;fontSize=12;html=1;endArrow=blockThin;endFill=1;rounded=0;" parent="U1KqUVC1e1E0VkJmuzpn-127" source="U1KqUVC1e1E0VkJmuzpn-249" target="U1KqUVC1e1E0VkJmuzpn-253" edge="1">
          <mxGeometry width="160" relative="1" as="geometry">
            <mxPoint x="1175" y="1280" as="sourcePoint" />
            <mxPoint x="1175" y="1180" as="targetPoint" />
          </mxGeometry>
        </mxCell>
        <mxCell id="U1KqUVC1e1E0VkJmuzpn-255" value="" style="shape=datastore;whiteSpace=wrap;html=1;labelPosition=center;verticalLabelPosition=bottom;align=center;verticalAlign=top;aspect=fixed;" parent="U1KqUVC1e1E0VkJmuzpn-127" vertex="1">
          <mxGeometry x="1371" y="255" width="40" height="40" as="geometry" />
        </mxCell>
        <mxCell id="U1KqUVC1e1E0VkJmuzpn-256" value="" style="fontSize=12;html=1;endFill=0;startFill=0;endSize=6;startSize=6;dashed=1;dashPattern=1 4;endArrow=openThin;startArrow=none;rounded=0;elbow=vertical;" parent="U1KqUVC1e1E0VkJmuzpn-127" source="U1KqUVC1e1E0VkJmuzpn-249" target="U1KqUVC1e1E0VkJmuzpn-255" edge="1">
          <mxGeometry width="160" relative="1" as="geometry">
            <mxPoint x="1204" y="470" as="sourcePoint" />
            <mxPoint x="848" y="434" as="targetPoint" />
          </mxGeometry>
        </mxCell>
        <mxCell id="U1KqUVC1e1E0VkJmuzpn-279" value="" style="points=[[0.145,0.145,0],[0.5,0,0],[0.855,0.145,0],[1,0.5,0],[0.855,0.855,0],[0.5,1,0],[0.145,0.855,0],[0,0.5,0]];shape=mxgraph.bpmn.event;html=1;verticalLabelPosition=bottom;labelBackgroundColor=#ffffff;verticalAlign=top;align=center;perimeter=ellipsePerimeter;outlineConnect=0;aspect=fixed;outline=standard;symbol=message;" parent="U1KqUVC1e1E0VkJmuzpn-127" vertex="1">
          <mxGeometry x="1306" y="45" width="50" height="50" as="geometry" />
        </mxCell>
        <mxCell id="U1KqUVC1e1E0VkJmuzpn-281" value="Return execution" style="shape=mxgraph.bpmn.task;whiteSpace=wrap;rectStyle=rounded;size=10;taskMarker=send;points=[[0.25,0,0],[0.5,0,0],[0.75,0,0],[1,0.25,0],[1,0.5,0],[1,0.75,0],[0.75,1,0],[0.5,1,0],[0.25,1,0],[0,0.75,0],[0,0.5,0],[0,0.25,0]];html=1;container=1;expand=0;collapsible=0;" parent="U1KqUVC1e1E0VkJmuzpn-127" vertex="1">
          <mxGeometry x="1425" y="35" width="120" height="80" as="geometry" />
        </mxCell>
        <mxCell id="U1KqUVC1e1E0VkJmuzpn-283" value="Get plan execution" style="points=[[0.25,0,0],[0.5,0,0],[0.75,0,0],[1,0.25,0],[1,0.5,0],[1,0.75,0],[0.75,1,0],[0.5,1,0],[0.25,1,0],[0,0.75,0],[0,0.5,0],[0,0.25,0]];shape=mxgraph.bpmn.task;whiteSpace=wrap;rectStyle=rounded;size=10;taskMarker=abstract;" parent="U1KqUVC1e1E0VkJmuzpn-127" vertex="1">
          <mxGeometry x="1425" y="140" width="120" height="80" as="geometry" />
        </mxCell>
        <mxCell id="U1KqUVC1e1E0VkJmuzpn-284" value="" style="edgeStyle=elbowEdgeStyle;fontSize=12;html=1;endArrow=blockThin;endFill=1;rounded=0;elbow=vertical;" parent="U1KqUVC1e1E0VkJmuzpn-127" source="U1KqUVC1e1E0VkJmuzpn-279" target="U1KqUVC1e1E0VkJmuzpn-283" edge="1">
          <mxGeometry width="160" relative="1" as="geometry">
            <mxPoint x="1020" y="110" as="sourcePoint" />
            <mxPoint x="1020" y="130" as="targetPoint" />
            <Array as="points">
              <mxPoint x="1400" y="180" />
            </Array>
          </mxGeometry>
        </mxCell>
        <mxCell id="U1KqUVC1e1E0VkJmuzpn-285" value="" style="fontSize=12;html=1;endFill=0;startFill=0;endSize=6;startSize=6;dashed=1;dashPattern=1 4;endArrow=openThin;startArrow=none;rounded=0;elbow=vertical;" parent="U1KqUVC1e1E0VkJmuzpn-127" source="U1KqUVC1e1E0VkJmuzpn-255" target="U1KqUVC1e1E0VkJmuzpn-283" edge="1">
          <mxGeometry width="160" relative="1" as="geometry">
            <mxPoint x="848" y="434" as="sourcePoint" />
            <mxPoint x="1204" y="470" as="targetPoint" />
          </mxGeometry>
        </mxCell>
        <mxCell id="U1KqUVC1e1E0VkJmuzpn-286" value="" style="edgeStyle=elbowEdgeStyle;fontSize=12;html=1;endArrow=blockThin;endFill=1;rounded=0;" parent="U1KqUVC1e1E0VkJmuzpn-127" source="U1KqUVC1e1E0VkJmuzpn-283" target="U1KqUVC1e1E0VkJmuzpn-281" edge="1">
          <mxGeometry width="160" relative="1" as="geometry">
            <mxPoint x="1020" y="110" as="sourcePoint" />
            <mxPoint x="1020" y="130" as="targetPoint" />
          </mxGeometry>
        </mxCell>
        <mxCell id="c-N2GnIyo7EjWN-7pbOH-16" value="The plan execution will be initiated with a &#39;requested&#39; status, as the calculation of instantaneous positions is performed asynchronously" style="shape=note2;boundedLbl=1;whiteSpace=wrap;html=1;size=14;verticalAlign=top;align=left;fontSize=10;horizontal=1;" vertex="1" parent="U1KqUVC1e1E0VkJmuzpn-127">
          <mxGeometry x="1349" y="345" width="131" height="95" as="geometry" />
        </mxCell>
        <mxCell id="c-N2GnIyo7EjWN-7pbOH-17" value="" style="endArrow=none;dashed=1;html=1;dashPattern=1 4;strokeWidth=1;rounded=0;" edge="1" parent="U1KqUVC1e1E0VkJmuzpn-127" target="c-N2GnIyo7EjWN-7pbOH-16" source="U1KqUVC1e1E0VkJmuzpn-249">
          <mxGeometry width="50" height="50" relative="1" as="geometry">
            <mxPoint x="1351" y="416" as="sourcePoint" />
            <mxPoint x="1381" y="690" as="targetPoint" />
          </mxGeometry>
        </mxCell>
        <mxCell id="c-N2GnIyo7EjWN-7pbOH-84" value="Initially, the plan execution will largely consist of a modified copy of the current plan to ensure traceability and contain the configuration of scenarios for execution." style="shape=note2;boundedLbl=1;whiteSpace=wrap;html=1;size=14;verticalAlign=top;align=left;fontSize=10;horizontal=1;" vertex="1" parent="U1KqUVC1e1E0VkJmuzpn-127">
          <mxGeometry x="1159" y="430" width="151" height="100" as="geometry" />
        </mxCell>
        <mxCell id="c-N2GnIyo7EjWN-7pbOH-85" value="" style="endArrow=none;dashed=1;html=1;dashPattern=1 4;strokeWidth=1;rounded=0;" edge="1" parent="U1KqUVC1e1E0VkJmuzpn-127" target="c-N2GnIyo7EjWN-7pbOH-84" source="U1KqUVC1e1E0VkJmuzpn-249">
          <mxGeometry width="50" height="50" relative="1" as="geometry">
            <mxPoint x="1210" y="474" as="sourcePoint" />
            <mxPoint x="1261" y="785" as="targetPoint" />
          </mxGeometry>
        </mxCell>
        <mxCell id="U1KqUVC1e1E0VkJmuzpn-144" value="Calculation Handler" style="swimlane;html=1;startSize=20;horizontal=0;" parent="U1KqUVC1e1E0VkJmuzpn-55" vertex="1">
          <mxGeometry x="20" y="1320" width="1630" height="320" as="geometry" />
        </mxCell>
        <mxCell id="c-N2GnIyo7EjWN-7pbOH-15" value="PlanExecution&lt;br&gt;[status=requested]" style="points=[[0.145,0.145,0],[0.5,0,0],[0.855,0.145,0],[1,0.5,0],[0.855,0.855,0],[0.5,1,0],[0.145,0.855,0],[0,0.5,0]];shape=mxgraph.bpmn.event;html=1;verticalLabelPosition=bottom;labelBackgroundColor=#ffffff;verticalAlign=top;align=center;perimeter=ellipsePerimeter;outlineConnect=0;aspect=fixed;outline=standard;symbol=signal;" vertex="1" parent="U1KqUVC1e1E0VkJmuzpn-144">
          <mxGeometry x="60" y="60" width="50" height="50" as="geometry" />
        </mxCell>
        <mxCell id="c-N2GnIyo7EjWN-7pbOH-37" value="" style="edgeStyle=elbowEdgeStyle;fontSize=12;html=1;endArrow=blockThin;endFill=1;rounded=0;elbow=vertical;" edge="1" parent="U1KqUVC1e1E0VkJmuzpn-144" source="c-N2GnIyo7EjWN-7pbOH-41" target="c-N2GnIyo7EjWN-7pbOH-49">
          <mxGeometry width="160" relative="1" as="geometry">
            <mxPoint x="120" y="461" as="sourcePoint" />
            <mxPoint x="290" y="85" as="targetPoint" />
          </mxGeometry>
        </mxCell>
        <mxCell id="c-N2GnIyo7EjWN-7pbOH-41" value="Get source list" style="points=[[0.25,0,0],[0.5,0,0],[0.75,0,0],[1,0.25,0],[1,0.5,0],[1,0.75,0],[0.75,1,0],[0.5,1,0],[0.25,1,0],[0,0.75,0],[0,0.5,0],[0,0.25,0]];shape=mxgraph.bpmn.task;whiteSpace=wrap;rectStyle=rounded;size=10;html=1;container=1;expand=0;collapsible=0;taskMarker=abstract;" vertex="1" parent="U1KqUVC1e1E0VkJmuzpn-144">
          <mxGeometry x="150" y="45" width="120" height="80" as="geometry" />
        </mxCell>
        <mxCell id="c-N2GnIyo7EjWN-7pbOH-42" value="" style="edgeStyle=elbowEdgeStyle;fontSize=12;html=1;endArrow=blockThin;endFill=1;rounded=0;" edge="1" parent="U1KqUVC1e1E0VkJmuzpn-144" source="c-N2GnIyo7EjWN-7pbOH-15" target="c-N2GnIyo7EjWN-7pbOH-41">
          <mxGeometry width="160" relative="1" as="geometry">
            <mxPoint x="130" y="1565" as="sourcePoint" />
            <mxPoint x="340" y="1565" as="targetPoint" />
          </mxGeometry>
        </mxCell>
        <mxCell id="c-N2GnIyo7EjWN-7pbOH-43" value="Task" style="shape=mxgraph.bpmn.data;labelPosition=center;verticalLabelPosition=bottom;align=center;verticalAlign=top;whiteSpace=wrap;size=15;html=1;fontFamily=Helvetica;fontSize=12;fontColor=default;strokeColor=default;fillColor=default;" vertex="1" parent="U1KqUVC1e1E0VkJmuzpn-144">
          <mxGeometry x="180" y="150" width="30" height="40" as="geometry" />
        </mxCell>
        <mxCell id="c-N2GnIyo7EjWN-7pbOH-44" value="" style="fontSize=12;html=1;endFill=0;startFill=0;endSize=6;startSize=6;dashed=1;dashPattern=1 4;endArrow=openThin;startArrow=none;rounded=0;" edge="1" parent="U1KqUVC1e1E0VkJmuzpn-144" source="c-N2GnIyo7EjWN-7pbOH-43" target="c-N2GnIyo7EjWN-7pbOH-41">
          <mxGeometry width="160" relative="1" as="geometry">
            <mxPoint x="-230" y="309" as="sourcePoint" />
            <mxPoint x="183" y="235" as="targetPoint" />
          </mxGeometry>
        </mxCell>
        <mxCell id="c-N2GnIyo7EjWN-7pbOH-65" value="Build list of positions" style="group" vertex="1" connectable="0" parent="U1KqUVC1e1E0VkJmuzpn-144">
          <mxGeometry x="300" y="45" width="430" height="245" as="geometry" />
        </mxCell>
        <mxCell id="c-N2GnIyo7EjWN-7pbOH-49" value="Build list of positions from sources" style="points=[[0.25,0,0],[0.5,0,0],[0.75,0,0],[1,0.25,0],[1,0.5,0],[1,0.75,0],[0.75,1,0],[0.5,1,0],[0.25,1,0],[0,0.75,0],[0,0.5,0],[0,0.25,0]];shape=mxgraph.bpmn.task;whiteSpace=wrap;rectStyle=rounded;size=10;html=1;container=0;expand=0;collapsible=0;taskMarker=abstract;isLoopStandard=1;verticalAlign=top;" vertex="1" parent="c-N2GnIyo7EjWN-7pbOH-65">
          <mxGeometry width="430" height="245" as="geometry" />
        </mxCell>
        <mxCell id="c-N2GnIyo7EjWN-7pbOH-50" value="Get positions in batch" style="points=[[0.25,0,0],[0.5,0,0],[0.75,0,0],[1,0.25,0],[1,0.5,0],[1,0.75,0],[0.75,1,0],[0.5,1,0],[0.25,1,0],[0,0.75,0],[0,0.5,0],[0,0.25,0]];shape=mxgraph.bpmn.task;whiteSpace=wrap;rectStyle=rounded;size=10;html=1;container=1;expand=0;collapsible=0;taskMarker=abstract;" vertex="1" parent="c-N2GnIyo7EjWN-7pbOH-65">
          <mxGeometry x="55" y="135" width="120" height="80" as="geometry" />
        </mxCell>
        <mxCell id="c-N2GnIyo7EjWN-7pbOH-51" value="" style="points=[[0.145,0.145,0],[0.5,0,0],[0.855,0.145,0],[1,0.5,0],[0.855,0.855,0],[0.5,1,0],[0.145,0.855,0],[0,0.5,0]];shape=mxgraph.bpmn.event;html=1;verticalLabelPosition=bottom;labelBackgroundColor=#ffffff;verticalAlign=top;align=center;perimeter=ellipsePerimeter;outlineConnect=0;aspect=fixed;outline=standard;symbol=general;" vertex="1" parent="c-N2GnIyo7EjWN-7pbOH-65">
          <mxGeometry x="20" y="55" width="50" height="50" as="geometry" />
        </mxCell>
        <mxCell id="c-N2GnIyo7EjWN-7pbOH-52" value="source is batch" style="edgeStyle=elbowEdgeStyle;fontSize=12;html=1;endArrow=blockThin;endFill=1;rounded=0;" edge="1" parent="c-N2GnIyo7EjWN-7pbOH-65" source="c-N2GnIyo7EjWN-7pbOH-53" target="c-N2GnIyo7EjWN-7pbOH-50">
          <mxGeometry width="160" relative="1" as="geometry">
            <mxPoint x="-180" y="436" as="sourcePoint" />
            <mxPoint x="-10" y="60" as="targetPoint" />
          </mxGeometry>
        </mxCell>
        <mxCell id="c-N2GnIyo7EjWN-7pbOH-53" value="" style="points=[[0.25,0.25,0],[0.5,0,0],[0.75,0.25,0],[1,0.5,0],[0.75,0.75,0],[0.5,1,0],[0.25,0.75,0],[0,0.5,0]];shape=mxgraph.bpmn.gateway2;html=1;verticalLabelPosition=bottom;labelBackgroundColor=#ffffff;verticalAlign=top;align=center;perimeter=rhombusPerimeter;outlineConnect=0;outline=standard;symbol=conditional;" vertex="1" parent="c-N2GnIyo7EjWN-7pbOH-65">
          <mxGeometry x="90" y="55" width="50" height="50" as="geometry" />
        </mxCell>
        <mxCell id="c-N2GnIyo7EjWN-7pbOH-54" value="" style="edgeStyle=elbowEdgeStyle;fontSize=12;html=1;endArrow=blockThin;endFill=1;rounded=0;" edge="1" parent="c-N2GnIyo7EjWN-7pbOH-65" source="c-N2GnIyo7EjWN-7pbOH-51" target="c-N2GnIyo7EjWN-7pbOH-53">
          <mxGeometry width="160" relative="1" as="geometry">
            <mxPoint x="390" y="1605" as="sourcePoint" />
            <mxPoint x="490" y="1605" as="targetPoint" />
          </mxGeometry>
        </mxCell>
        <mxCell id="c-N2GnIyo7EjWN-7pbOH-55" value="Get positions in order" style="points=[[0.25,0,0],[0.5,0,0],[0.75,0,0],[1,0.25,0],[1,0.5,0],[1,0.75,0],[0.75,1,0],[0.5,1,0],[0.25,1,0],[0,0.75,0],[0,0.5,0],[0,0.25,0]];shape=mxgraph.bpmn.task;whiteSpace=wrap;rectStyle=rounded;size=10;html=1;container=1;expand=0;collapsible=0;taskMarker=abstract;" vertex="1" parent="c-N2GnIyo7EjWN-7pbOH-65">
          <mxGeometry x="240" y="40" width="120" height="80" as="geometry" />
        </mxCell>
        <mxCell id="c-N2GnIyo7EjWN-7pbOH-56" value="source is order" style="fontSize=12;html=1;endArrow=blockThin;endFill=1;rounded=0;elbow=vertical;edgeStyle=orthogonalEdgeStyle;" edge="1" parent="c-N2GnIyo7EjWN-7pbOH-65" source="c-N2GnIyo7EjWN-7pbOH-53" target="c-N2GnIyo7EjWN-7pbOH-55">
          <mxGeometry width="160" relative="1" as="geometry">
            <mxPoint x="-180" y="436" as="sourcePoint" />
            <mxPoint x="-10" y="60" as="targetPoint" />
          </mxGeometry>
        </mxCell>
        <mxCell id="c-N2GnIyo7EjWN-7pbOH-59" value="" style="points=[[0.25,0.25,0],[0.5,0,0],[0.75,0.25,0],[1,0.5,0],[0.75,0.75,0],[0.5,1,0],[0.25,0.75,0],[0,0.5,0]];shape=mxgraph.bpmn.gateway2;html=1;verticalLabelPosition=bottom;labelBackgroundColor=#ffffff;verticalAlign=top;align=center;perimeter=rhombusPerimeter;outlineConnect=0;outline=standard;symbol=conditional;" vertex="1" parent="c-N2GnIyo7EjWN-7pbOH-65">
          <mxGeometry x="275" y="150" width="50" height="50" as="geometry" />
        </mxCell>
        <mxCell id="c-N2GnIyo7EjWN-7pbOH-60" value="" style="edgeStyle=elbowEdgeStyle;fontSize=12;html=1;endArrow=blockThin;endFill=1;rounded=0;" edge="1" parent="c-N2GnIyo7EjWN-7pbOH-65" source="c-N2GnIyo7EjWN-7pbOH-50" target="c-N2GnIyo7EjWN-7pbOH-59">
          <mxGeometry width="160" relative="1" as="geometry">
            <mxPoint x="390" y="1605" as="sourcePoint" />
            <mxPoint x="490" y="1605" as="targetPoint" />
          </mxGeometry>
        </mxCell>
        <mxCell id="c-N2GnIyo7EjWN-7pbOH-61" value="" style="edgeStyle=elbowEdgeStyle;fontSize=12;html=1;endArrow=blockThin;endFill=1;rounded=0;" edge="1" parent="c-N2GnIyo7EjWN-7pbOH-65" source="c-N2GnIyo7EjWN-7pbOH-55" target="c-N2GnIyo7EjWN-7pbOH-59">
          <mxGeometry width="160" relative="1" as="geometry">
            <mxPoint x="390" y="1605" as="sourcePoint" />
            <mxPoint x="490" y="1605" as="targetPoint" />
          </mxGeometry>
        </mxCell>
        <mxCell id="c-N2GnIyo7EjWN-7pbOH-62" value="" style="points=[[0.145,0.145,0],[0.5,0,0],[0.855,0.145,0],[1,0.5,0],[0.855,0.855,0],[0.5,1,0],[0.145,0.855,0],[0,0.5,0]];shape=mxgraph.bpmn.event;html=1;verticalLabelPosition=bottom;labelBackgroundColor=#ffffff;verticalAlign=top;align=center;perimeter=ellipsePerimeter;outlineConnect=0;aspect=fixed;outline=end;symbol=terminate2;" vertex="1" parent="c-N2GnIyo7EjWN-7pbOH-65">
          <mxGeometry x="360" y="150" width="50" height="50" as="geometry" />
        </mxCell>
        <mxCell id="c-N2GnIyo7EjWN-7pbOH-63" value="" style="edgeStyle=elbowEdgeStyle;fontSize=12;html=1;endArrow=blockThin;endFill=1;rounded=0;" edge="1" parent="c-N2GnIyo7EjWN-7pbOH-65" source="c-N2GnIyo7EjWN-7pbOH-59" target="c-N2GnIyo7EjWN-7pbOH-62">
          <mxGeometry width="160" relative="1" as="geometry">
            <mxPoint x="390" y="1605" as="sourcePoint" />
            <mxPoint x="490" y="1605" as="targetPoint" />
          </mxGeometry>
        </mxCell>
        <mxCell id="c-N2GnIyo7EjWN-7pbOH-66" value="Add list of calculations to plan execution" style="points=[[0.25,0,0],[0.5,0,0],[0.75,0,0],[1,0.25,0],[1,0.5,0],[1,0.75,0],[0.75,1,0],[0.5,1,0],[0.25,1,0],[0,0.75,0],[0,0.5,0],[0,0.25,0]];shape=mxgraph.bpmn.task;whiteSpace=wrap;rectStyle=rounded;size=10;html=1;container=1;expand=0;collapsible=0;taskMarker=abstract;" vertex="1" parent="U1KqUVC1e1E0VkJmuzpn-144">
          <mxGeometry x="900" y="45" width="120" height="80" as="geometry" />
        </mxCell>
        <mxCell id="c-N2GnIyo7EjWN-7pbOH-67" value="" style="edgeStyle=elbowEdgeStyle;fontSize=12;html=1;endArrow=blockThin;endFill=1;rounded=0;elbow=vertical;" edge="1" parent="U1KqUVC1e1E0VkJmuzpn-144" source="c-N2GnIyo7EjWN-7pbOH-94" target="c-N2GnIyo7EjWN-7pbOH-66">
          <mxGeometry width="160" relative="1" as="geometry">
            <mxPoint x="120" y="461" as="sourcePoint" />
            <mxPoint x="290" y="85" as="targetPoint" />
          </mxGeometry>
        </mxCell>
        <mxCell id="c-N2GnIyo7EjWN-7pbOH-68" value="Update status to &quot;pending&quot;" style="points=[[0.25,0,0],[0.5,0,0],[0.75,0,0],[1,0.25,0],[1,0.5,0],[1,0.75,0],[0.75,1,0],[0.5,1,0],[0.25,1,0],[0,0.75,0],[0,0.5,0],[0,0.25,0]];shape=mxgraph.bpmn.task;whiteSpace=wrap;rectStyle=rounded;size=10;html=1;container=1;expand=0;collapsible=0;taskMarker=abstract;" vertex="1" parent="U1KqUVC1e1E0VkJmuzpn-144">
          <mxGeometry x="1050" y="45" width="120" height="80" as="geometry" />
        </mxCell>
        <mxCell id="c-N2GnIyo7EjWN-7pbOH-69" value="" style="edgeStyle=elbowEdgeStyle;fontSize=12;html=1;endArrow=blockThin;endFill=1;rounded=0;elbow=vertical;" edge="1" parent="U1KqUVC1e1E0VkJmuzpn-144" source="c-N2GnIyo7EjWN-7pbOH-66" target="c-N2GnIyo7EjWN-7pbOH-68">
          <mxGeometry width="160" relative="1" as="geometry">
            <mxPoint x="260" y="461" as="sourcePoint" />
            <mxPoint x="430" y="85" as="targetPoint" />
          </mxGeometry>
        </mxCell>
        <mxCell id="c-N2GnIyo7EjWN-7pbOH-72" value="PlanExecution" style="points=[[0.145,0.145,0],[0.5,0,0],[0.855,0.145,0],[1,0.5,0],[0.855,0.855,0],[0.5,1,0],[0.145,0.855,0],[0,0.5,0]];shape=mxgraph.bpmn.event;html=1;verticalLabelPosition=bottom;labelBackgroundColor=#ffffff;verticalAlign=top;align=center;perimeter=ellipsePerimeter;outlineConnect=0;aspect=fixed;outline=throwing;symbol=signal;" vertex="1" parent="U1KqUVC1e1E0VkJmuzpn-144">
          <mxGeometry x="1350" y="60" width="50" height="50" as="geometry" />
        </mxCell>
        <mxCell id="c-N2GnIyo7EjWN-7pbOH-73" value="" style="edgeStyle=elbowEdgeStyle;fontSize=12;html=1;endArrow=blockThin;endFill=1;rounded=0;" edge="1" parent="U1KqUVC1e1E0VkJmuzpn-144" source="c-N2GnIyo7EjWN-7pbOH-74" target="c-N2GnIyo7EjWN-7pbOH-72">
          <mxGeometry width="160" relative="1" as="geometry">
            <mxPoint x="970" y="-390" as="sourcePoint" />
            <mxPoint x="1000" y="-390" as="targetPoint" />
          </mxGeometry>
        </mxCell>
        <mxCell id="c-N2GnIyo7EjWN-7pbOH-74" value="Publish plan execution" style="points=[[0.25,0,0],[0.5,0,0],[0.75,0,0],[1,0.25,0],[1,0.5,0],[1,0.75,0],[0.75,1,0],[0.5,1,0],[0.25,1,0],[0,0.75,0],[0,0.5,0],[0,0.25,0]];shape=mxgraph.bpmn.task;whiteSpace=wrap;rectStyle=rounded;size=10;taskMarker=abstract;" vertex="1" parent="U1KqUVC1e1E0VkJmuzpn-144">
          <mxGeometry x="1200" y="45" width="120" height="80" as="geometry" />
        </mxCell>
        <mxCell id="c-N2GnIyo7EjWN-7pbOH-75" value="" style="edgeStyle=elbowEdgeStyle;fontSize=12;html=1;endArrow=blockThin;endFill=1;rounded=0;elbow=vertical;" edge="1" parent="U1KqUVC1e1E0VkJmuzpn-144" source="c-N2GnIyo7EjWN-7pbOH-68" target="c-N2GnIyo7EjWN-7pbOH-74">
          <mxGeometry width="160" relative="1" as="geometry">
            <mxPoint x="260" y="461" as="sourcePoint" />
            <mxPoint x="430" y="85" as="targetPoint" />
          </mxGeometry>
        </mxCell>
        <mxCell id="c-N2GnIyo7EjWN-7pbOH-76" value="" style="points=[[0.145,0.145,0],[0.5,0,0],[0.855,0.145,0],[1,0.5,0],[0.855,0.855,0],[0.5,1,0],[0.145,0.855,0],[0,0.5,0]];shape=mxgraph.bpmn.event;html=1;verticalLabelPosition=bottom;labelBackgroundColor=#ffffff;verticalAlign=top;align=center;perimeter=ellipsePerimeter;outlineConnect=0;aspect=fixed;outline=end;symbol=terminate2;" vertex="1" parent="U1KqUVC1e1E0VkJmuzpn-144">
          <mxGeometry x="1430" y="60" width="50" height="50" as="geometry" />
        </mxCell>
        <mxCell id="c-N2GnIyo7EjWN-7pbOH-77" value="" style="edgeStyle=elbowEdgeStyle;fontSize=12;html=1;endArrow=blockThin;endFill=1;rounded=0;" edge="1" parent="U1KqUVC1e1E0VkJmuzpn-144" source="c-N2GnIyo7EjWN-7pbOH-72" target="c-N2GnIyo7EjWN-7pbOH-76">
          <mxGeometry width="160" relative="1" as="geometry">
            <mxPoint x="970" y="-390" as="sourcePoint" />
            <mxPoint x="1000" y="-390" as="targetPoint" />
          </mxGeometry>
        </mxCell>
        <mxCell id="c-N2GnIyo7EjWN-7pbOH-78" value="" style="shape=datastore;whiteSpace=wrap;html=1;labelPosition=center;verticalLabelPosition=bottom;align=center;verticalAlign=top;aspect=fixed;" vertex="1" parent="U1KqUVC1e1E0VkJmuzpn-144">
          <mxGeometry x="1020" y="160" width="40" height="40" as="geometry" />
        </mxCell>
        <mxCell id="c-N2GnIyo7EjWN-7pbOH-79" value="" style="fontSize=12;html=1;endFill=0;startFill=0;endSize=6;startSize=6;dashed=1;dashPattern=1 4;endArrow=openThin;startArrow=none;rounded=0;elbow=vertical;" edge="1" parent="U1KqUVC1e1E0VkJmuzpn-144" target="c-N2GnIyo7EjWN-7pbOH-78" source="c-N2GnIyo7EjWN-7pbOH-68">
          <mxGeometry width="160" relative="1" as="geometry">
            <mxPoint x="1020" y="245" as="sourcePoint" />
            <mxPoint x="547" y="349" as="targetPoint" />
          </mxGeometry>
        </mxCell>
        <mxCell id="c-N2GnIyo7EjWN-7pbOH-80" value="" style="fontSize=12;html=1;endFill=0;startFill=0;endSize=6;startSize=6;dashed=1;dashPattern=1 4;endArrow=openThin;startArrow=none;rounded=0;elbow=vertical;" edge="1" parent="U1KqUVC1e1E0VkJmuzpn-144" source="c-N2GnIyo7EjWN-7pbOH-66" target="c-N2GnIyo7EjWN-7pbOH-78">
          <mxGeometry width="160" relative="1" as="geometry">
            <mxPoint x="1020" y="245" as="sourcePoint" />
            <mxPoint x="547" y="349" as="targetPoint" />
          </mxGeometry>
        </mxCell>
        <mxCell id="c-N2GnIyo7EjWN-7pbOH-94" value="Build position to calculation mapping" style="points=[[0.25,0,0],[0.5,0,0],[0.75,0,0],[1,0.25,0],[1,0.5,0],[1,0.75,0],[0.75,1,0],[0.5,1,0],[0.25,1,0],[0,0.75,0],[0,0.5,0],[0,0.25,0]];shape=mxgraph.bpmn.task;whiteSpace=wrap;rectStyle=rounded;size=10;html=1;container=1;expand=0;collapsible=0;taskMarker=abstract;" vertex="1" parent="U1KqUVC1e1E0VkJmuzpn-144">
          <mxGeometry x="755" y="45" width="120" height="80" as="geometry" />
        </mxCell>
        <mxCell id="c-N2GnIyo7EjWN-7pbOH-95" value="" style="edgeStyle=elbowEdgeStyle;fontSize=12;html=1;endArrow=blockThin;endFill=1;rounded=0;elbow=vertical;" edge="1" parent="U1KqUVC1e1E0VkJmuzpn-144" source="c-N2GnIyo7EjWN-7pbOH-49" target="c-N2GnIyo7EjWN-7pbOH-94">
          <mxGeometry width="160" relative="1" as="geometry">
            <mxPoint x="750" y="1565" as="sourcePoint" />
            <mxPoint x="920" y="1565" as="targetPoint" />
          </mxGeometry>
        </mxCell>
        <mxCell id="U1KqUVC1e1E0VkJmuzpn-142" value="Calculation extractor" style="swimlane;html=1;startSize=20;horizontal=0;" parent="U1KqUVC1e1E0VkJmuzpn-55" vertex="1">
          <mxGeometry x="20" y="1640" width="1630" height="210" as="geometry" />
        </mxCell>
        <mxCell id="U1KqUVC1e1E0VkJmuzpn-145" value="bom/Calculation" style="points=[[0.145,0.145,0],[0.5,0,0],[0.855,0.145,0],[1,0.5,0],[0.855,0.855,0],[0.5,1,0],[0.145,0.855,0],[0,0.5,0]];shape=mxgraph.bpmn.event;html=1;verticalLabelPosition=bottom;labelBackgroundColor=#ffffff;verticalAlign=top;align=center;perimeter=ellipsePerimeter;outlineConnect=0;aspect=fixed;outline=standard;symbol=signal;" parent="U1KqUVC1e1E0VkJmuzpn-142" vertex="1">
          <mxGeometry x="60" y="106" width="50" height="50" as="geometry" />
        </mxCell>
        <mxCell id="c-N2GnIyo7EjWN-7pbOH-18" value="Extract order, position, and batch from calculation result" style="points=[[0.25,0,0],[0.5,0,0],[0.75,0,0],[1,0.25,0],[1,0.5,0],[1,0.75,0],[0.75,1,0],[0.5,1,0],[0.25,1,0],[0,0.75,0],[0,0.5,0],[0,0.25,0]];shape=mxgraph.bpmn.task;whiteSpace=wrap;rectStyle=rounded;size=10;html=1;container=1;expand=0;collapsible=0;taskMarker=abstract;" vertex="1" parent="U1KqUVC1e1E0VkJmuzpn-142">
          <mxGeometry x="160" y="91" width="120" height="80" as="geometry" />
        </mxCell>
        <mxCell id="c-N2GnIyo7EjWN-7pbOH-20" value="" style="edgeStyle=elbowEdgeStyle;fontSize=12;html=1;endArrow=blockThin;endFill=1;rounded=0;" edge="1" parent="U1KqUVC1e1E0VkJmuzpn-142" source="U1KqUVC1e1E0VkJmuzpn-145" target="c-N2GnIyo7EjWN-7pbOH-18">
          <mxGeometry width="160" relative="1" as="geometry">
            <mxPoint x="950" y="-744" as="sourcePoint" />
            <mxPoint x="970" y="-744" as="targetPoint" />
          </mxGeometry>
        </mxCell>
        <mxCell id="c-N2GnIyo7EjWN-7pbOH-21" value="Calculation" style="shape=mxgraph.bpmn.data;labelPosition=center;verticalLabelPosition=bottom;align=center;verticalAlign=top;whiteSpace=wrap;size=15;html=1;fontFamily=Helvetica;fontSize=12;fontColor=default;strokeColor=default;fillColor=default;" vertex="1" parent="U1KqUVC1e1E0VkJmuzpn-142">
          <mxGeometry x="110" y="30" width="30" height="40" as="geometry" />
        </mxCell>
        <mxCell id="c-N2GnIyo7EjWN-7pbOH-22" value="" style="fontSize=12;html=1;endFill=0;startFill=0;endSize=6;startSize=6;dashed=1;dashPattern=1 4;endArrow=openThin;startArrow=none;rounded=0;" edge="1" parent="U1KqUVC1e1E0VkJmuzpn-142" source="c-N2GnIyo7EjWN-7pbOH-21" target="c-N2GnIyo7EjWN-7pbOH-18">
          <mxGeometry width="160" relative="1" as="geometry">
            <mxPoint x="-240" y="165" as="sourcePoint" />
            <mxPoint x="205" y="382" as="targetPoint" />
          </mxGeometry>
        </mxCell>
        <mxCell id="c-N2GnIyo7EjWN-7pbOH-23" value="Store batch to position mapping" style="points=[[0.25,0,0],[0.5,0,0],[0.75,0,0],[1,0.25,0],[1,0.5,0],[1,0.75,0],[0.75,1,0],[0.5,1,0],[0.25,1,0],[0,0.75,0],[0,0.5,0],[0,0.25,0]];shape=mxgraph.bpmn.task;whiteSpace=wrap;rectStyle=rounded;size=10;html=1;container=1;expand=0;collapsible=0;taskMarker=abstract;" vertex="1" parent="U1KqUVC1e1E0VkJmuzpn-142">
          <mxGeometry x="310" y="91" width="120" height="80" as="geometry" />
        </mxCell>
        <mxCell id="c-N2GnIyo7EjWN-7pbOH-24" value="" style="edgeStyle=elbowEdgeStyle;fontSize=12;html=1;endArrow=blockThin;endFill=1;rounded=0;" edge="1" parent="U1KqUVC1e1E0VkJmuzpn-142" source="c-N2GnIyo7EjWN-7pbOH-18" target="c-N2GnIyo7EjWN-7pbOH-23">
          <mxGeometry width="160" relative="1" as="geometry">
            <mxPoint x="950" y="-744" as="sourcePoint" />
            <mxPoint x="970" y="-744" as="targetPoint" />
          </mxGeometry>
        </mxCell>
        <mxCell id="c-N2GnIyo7EjWN-7pbOH-25" value="" style="shape=datastore;whiteSpace=wrap;html=1;labelPosition=center;verticalLabelPosition=bottom;align=center;verticalAlign=top;aspect=fixed;" vertex="1" parent="U1KqUVC1e1E0VkJmuzpn-142">
          <mxGeometry x="640" y="30" width="40" height="40" as="geometry" />
        </mxCell>
        <mxCell id="c-N2GnIyo7EjWN-7pbOH-27" value="" style="points=[[0.145,0.145,0],[0.5,0,0],[0.855,0.145,0],[1,0.5,0],[0.855,0.855,0],[0.5,1,0],[0.145,0.855,0],[0,0.5,0]];shape=mxgraph.bpmn.event;html=1;verticalLabelPosition=bottom;labelBackgroundColor=#ffffff;verticalAlign=top;align=center;perimeter=ellipsePerimeter;outlineConnect=0;aspect=fixed;outline=end;symbol=terminate2;" vertex="1" parent="U1KqUVC1e1E0VkJmuzpn-142">
          <mxGeometry x="910" y="106" width="50" height="50" as="geometry" />
        </mxCell>
        <mxCell id="c-N2GnIyo7EjWN-7pbOH-28" value="" style="edgeStyle=elbowEdgeStyle;fontSize=12;html=1;endArrow=blockThin;endFill=1;rounded=0;" edge="1" parent="U1KqUVC1e1E0VkJmuzpn-142" source="c-N2GnIyo7EjWN-7pbOH-99" target="c-N2GnIyo7EjWN-7pbOH-27">
          <mxGeometry width="160" relative="1" as="geometry">
            <mxPoint x="915" y="-744" as="sourcePoint" />
            <mxPoint x="935" y="-744" as="targetPoint" />
          </mxGeometry>
        </mxCell>
        <mxCell id="c-N2GnIyo7EjWN-7pbOH-32" value="" style="edgeStyle=elbowEdgeStyle;fontSize=12;html=1;endArrow=blockThin;endFill=1;rounded=0;" edge="1" parent="U1KqUVC1e1E0VkJmuzpn-142" source="c-N2GnIyo7EjWN-7pbOH-45" target="c-N2GnIyo7EjWN-7pbOH-31">
          <mxGeometry width="160" relative="1" as="geometry">
            <mxPoint x="450" y="1931" as="sourcePoint" />
            <mxPoint x="670" y="1931" as="targetPoint" />
          </mxGeometry>
        </mxCell>
        <mxCell id="c-N2GnIyo7EjWN-7pbOH-31" value="Store position to calculation mapping" style="points=[[0.25,0,0],[0.5,0,0],[0.75,0,0],[1,0.25,0],[1,0.5,0],[1,0.75,0],[0.75,1,0],[0.5,1,0],[0.25,1,0],[0,0.75,0],[0,0.5,0],[0,0.25,0]];shape=mxgraph.bpmn.task;whiteSpace=wrap;rectStyle=rounded;size=10;html=1;container=1;expand=0;collapsible=0;taskMarker=abstract;" vertex="1" parent="U1KqUVC1e1E0VkJmuzpn-142">
          <mxGeometry x="605" y="91" width="120" height="80" as="geometry" />
        </mxCell>
        <mxCell id="c-N2GnIyo7EjWN-7pbOH-33" value="" style="fontSize=12;html=1;endFill=0;startFill=0;endSize=6;startSize=6;dashed=1;dashPattern=1 4;endArrow=openThin;startArrow=none;rounded=0;elbow=vertical;" edge="1" parent="U1KqUVC1e1E0VkJmuzpn-142" source="c-N2GnIyo7EjWN-7pbOH-31" target="c-N2GnIyo7EjWN-7pbOH-25">
          <mxGeometry width="160" relative="1" as="geometry">
            <mxPoint x="365" y="248" as="sourcePoint" />
            <mxPoint x="-107" y="290" as="targetPoint" />
          </mxGeometry>
        </mxCell>
        <mxCell id="c-N2GnIyo7EjWN-7pbOH-34" value="" style="shape=datastore;whiteSpace=wrap;html=1;labelPosition=center;verticalLabelPosition=bottom;align=center;verticalAlign=top;aspect=fixed;" vertex="1" parent="U1KqUVC1e1E0VkJmuzpn-142">
          <mxGeometry x="360" y="30" width="40" height="40" as="geometry" />
        </mxCell>
        <mxCell id="c-N2GnIyo7EjWN-7pbOH-35" value="" style="fontSize=12;html=1;endFill=0;startFill=0;endSize=6;startSize=6;dashed=1;dashPattern=1 4;endArrow=openThin;startArrow=none;rounded=0;elbow=vertical;" edge="1" parent="U1KqUVC1e1E0VkJmuzpn-142" source="c-N2GnIyo7EjWN-7pbOH-23" target="c-N2GnIyo7EjWN-7pbOH-34">
          <mxGeometry width="160" relative="1" as="geometry">
            <mxPoint x="495" y="101" as="sourcePoint" />
            <mxPoint x="468" y="70" as="targetPoint" />
          </mxGeometry>
        </mxCell>
        <mxCell id="c-N2GnIyo7EjWN-7pbOH-45" value="Store order to position mapping" style="points=[[0.25,0,0],[0.5,0,0],[0.75,0,0],[1,0.25,0],[1,0.5,0],[1,0.75,0],[0.75,1,0],[0.5,1,0],[0.25,1,0],[0,0.75,0],[0,0.5,0],[0,0.25,0]];shape=mxgraph.bpmn.task;whiteSpace=wrap;rectStyle=rounded;size=10;html=1;container=1;expand=0;collapsible=0;taskMarker=abstract;" vertex="1" parent="U1KqUVC1e1E0VkJmuzpn-142">
          <mxGeometry x="455" y="91" width="120" height="80" as="geometry" />
        </mxCell>
        <mxCell id="c-N2GnIyo7EjWN-7pbOH-46" value="" style="edgeStyle=elbowEdgeStyle;fontSize=12;html=1;endArrow=blockThin;endFill=1;rounded=0;" edge="1" parent="U1KqUVC1e1E0VkJmuzpn-142" source="c-N2GnIyo7EjWN-7pbOH-23" target="c-N2GnIyo7EjWN-7pbOH-45">
          <mxGeometry width="160" relative="1" as="geometry">
            <mxPoint x="450" y="1931" as="sourcePoint" />
            <mxPoint x="660" y="1931" as="targetPoint" />
          </mxGeometry>
        </mxCell>
        <mxCell id="c-N2GnIyo7EjWN-7pbOH-47" value="" style="shape=datastore;whiteSpace=wrap;html=1;labelPosition=center;verticalLabelPosition=bottom;align=center;verticalAlign=top;aspect=fixed;" vertex="1" parent="U1KqUVC1e1E0VkJmuzpn-142">
          <mxGeometry x="490" y="30" width="40" height="40" as="geometry" />
        </mxCell>
        <mxCell id="c-N2GnIyo7EjWN-7pbOH-48" value="" style="fontSize=12;html=1;endFill=0;startFill=0;endSize=6;startSize=6;dashed=1;dashPattern=1 4;endArrow=openThin;startArrow=none;rounded=0;elbow=vertical;" edge="1" parent="U1KqUVC1e1E0VkJmuzpn-142" target="c-N2GnIyo7EjWN-7pbOH-47" source="c-N2GnIyo7EjWN-7pbOH-45">
          <mxGeometry width="160" relative="1" as="geometry">
            <mxPoint x="485" y="91" as="sourcePoint" />
            <mxPoint x="-252" y="290" as="targetPoint" />
          </mxGeometry>
        </mxCell>
        <mxCell id="c-N2GnIyo7EjWN-7pbOH-99" value="Store relevant calculation data" style="points=[[0.25,0,0],[0.5,0,0],[0.75,0,0],[1,0.25,0],[1,0.5,0],[1,0.75,0],[0.75,1,0],[0.5,1,0],[0.25,1,0],[0,0.75,0],[0,0.5,0],[0,0.25,0]];shape=mxgraph.bpmn.task;whiteSpace=wrap;rectStyle=rounded;size=10;html=1;container=1;expand=0;collapsible=0;taskMarker=abstract;" vertex="1" parent="U1KqUVC1e1E0VkJmuzpn-142">
          <mxGeometry x="755" y="91" width="120" height="80" as="geometry" />
        </mxCell>
        <mxCell id="c-N2GnIyo7EjWN-7pbOH-100" value="" style="edgeStyle=elbowEdgeStyle;fontSize=12;html=1;endArrow=blockThin;endFill=1;rounded=0;" edge="1" parent="U1KqUVC1e1E0VkJmuzpn-142" source="c-N2GnIyo7EjWN-7pbOH-31" target="c-N2GnIyo7EjWN-7pbOH-99">
          <mxGeometry width="160" relative="1" as="geometry">
            <mxPoint x="745" y="1931" as="sourcePoint" />
            <mxPoint x="930" y="1931" as="targetPoint" />
          </mxGeometry>
        </mxCell>
        <mxCell id="c-N2GnIyo7EjWN-7pbOH-101" value="" style="shape=datastore;whiteSpace=wrap;html=1;labelPosition=center;verticalLabelPosition=bottom;align=center;verticalAlign=top;aspect=fixed;" vertex="1" parent="U1KqUVC1e1E0VkJmuzpn-142">
          <mxGeometry x="790" y="30" width="40" height="40" as="geometry" />
        </mxCell>
        <mxCell id="c-N2GnIyo7EjWN-7pbOH-102" value="" style="fontSize=12;html=1;endFill=0;startFill=0;endSize=6;startSize=6;dashed=1;dashPattern=1 4;endArrow=openThin;startArrow=none;rounded=0;elbow=vertical;" edge="1" parent="U1KqUVC1e1E0VkJmuzpn-142" target="c-N2GnIyo7EjWN-7pbOH-101" source="c-N2GnIyo7EjWN-7pbOH-99">
          <mxGeometry width="160" relative="1" as="geometry">
            <mxPoint x="813" y="91" as="sourcePoint" />
            <mxPoint x="43" y="290" as="targetPoint" />
          </mxGeometry>
        </mxCell>
        <mxCell id="c-N2GnIyo7EjWN-7pbOH-103" value="Only certain components of TCalcResult (such as specific types within &quot;entities&quot;) are essential for the purpose of execute scenario jobs." style="shape=note2;boundedLbl=1;whiteSpace=wrap;html=1;size=14;verticalAlign=top;align=left;fontSize=10;horizontal=1;" vertex="1" parent="U1KqUVC1e1E0VkJmuzpn-142">
          <mxGeometry x="890" y="15" width="230" height="70" as="geometry" />
        </mxCell>
        <mxCell id="c-N2GnIyo7EjWN-7pbOH-104" value="" style="endArrow=none;dashed=1;html=1;dashPattern=1 4;strokeWidth=1;rounded=0;" edge="1" parent="U1KqUVC1e1E0VkJmuzpn-142" target="c-N2GnIyo7EjWN-7pbOH-103" source="c-N2GnIyo7EjWN-7pbOH-99">
          <mxGeometry width="50" height="50" relative="1" as="geometry">
            <mxPoint x="1148" y="45" as="sourcePoint" />
            <mxPoint x="1152" y="420" as="targetPoint" />
          </mxGeometry>
        </mxCell>
        <mxCell id="c-N2GnIyo7EjWN-7pbOH-57" value="" style="fontSize=12;html=1;endFill=0;startFill=0;endSize=6;startSize=6;dashed=1;dashPattern=1 4;endArrow=openThin;startArrow=none;rounded=0;elbow=vertical;" edge="1" parent="U1KqUVC1e1E0VkJmuzpn-55" source="c-N2GnIyo7EjWN-7pbOH-34" target="c-N2GnIyo7EjWN-7pbOH-50">
          <mxGeometry width="160" relative="1" as="geometry">
            <mxPoint x="515" y="1741" as="sourcePoint" />
            <mxPoint x="488" y="1710" as="targetPoint" />
          </mxGeometry>
        </mxCell>
        <mxCell id="c-N2GnIyo7EjWN-7pbOH-58" value="" style="fontSize=12;html=1;endFill=0;startFill=0;endSize=6;startSize=6;dashed=1;dashPattern=1 4;endArrow=openThin;startArrow=none;rounded=0;elbow=vertical;" edge="1" parent="U1KqUVC1e1E0VkJmuzpn-55" source="c-N2GnIyo7EjWN-7pbOH-47" target="c-N2GnIyo7EjWN-7pbOH-55">
          <mxGeometry width="160" relative="1" as="geometry">
            <mxPoint x="515" y="1741" as="sourcePoint" />
            <mxPoint x="488" y="1710" as="targetPoint" />
          </mxGeometry>
        </mxCell>
        <mxCell id="c-N2GnIyo7EjWN-7pbOH-86" value="Lane" style="swimlane;startSize=20;horizontal=0;html=1;whiteSpace=wrap;" vertex="1" parent="U1KqUVC1e1E0VkJmuzpn-55">
          <mxGeometry x="20" y="1850" width="1630" height="330" as="geometry" />
        </mxCell>
        <mxCell id="c-N2GnIyo7EjWN-7pbOH-87" value="PlanExecution&lt;br&gt;[status=pending]" style="points=[[0.145,0.145,0],[0.5,0,0],[0.855,0.145,0],[1,0.5,0],[0.855,0.855,0],[0.5,1,0],[0.145,0.855,0],[0,0.5,0]];shape=mxgraph.bpmn.event;html=1;verticalLabelPosition=bottom;labelBackgroundColor=#ffffff;verticalAlign=top;align=center;perimeter=ellipsePerimeter;outlineConnect=0;aspect=fixed;outline=standard;symbol=signal;" vertex="1" parent="c-N2GnIyo7EjWN-7pbOH-86">
          <mxGeometry x="60" y="35" width="50" height="50" as="geometry" />
        </mxCell>
        <mxCell id="c-N2GnIyo7EjWN-7pbOH-88" value="Get list of scenarios" style="points=[[0.25,0,0],[0.5,0,0],[0.75,0,0],[1,0.25,0],[1,0.5,0],[1,0.75,0],[0.75,1,0],[0.5,1,0],[0.25,1,0],[0,0.75,0],[0,0.5,0],[0,0.25,0]];shape=mxgraph.bpmn.task;whiteSpace=wrap;rectStyle=rounded;size=10;html=1;container=1;expand=0;collapsible=0;taskMarker=abstract;" vertex="1" parent="c-N2GnIyo7EjWN-7pbOH-86">
          <mxGeometry x="150" y="20" width="120" height="80" as="geometry" />
        </mxCell>
        <mxCell id="c-N2GnIyo7EjWN-7pbOH-89" value="" style="edgeStyle=elbowEdgeStyle;fontSize=12;html=1;endArrow=blockThin;endFill=1;rounded=0;" edge="1" parent="c-N2GnIyo7EjWN-7pbOH-86" source="c-N2GnIyo7EjWN-7pbOH-87" target="c-N2GnIyo7EjWN-7pbOH-88">
          <mxGeometry width="160" relative="1" as="geometry">
            <mxPoint x="130" y="1540" as="sourcePoint" />
            <mxPoint x="340" y="1540" as="targetPoint" />
          </mxGeometry>
        </mxCell>
        <mxCell id="c-N2GnIyo7EjWN-7pbOH-91" value="" style="edgeStyle=elbowEdgeStyle;fontSize=12;html=1;endArrow=blockThin;endFill=1;rounded=0;elbow=vertical;" edge="1" parent="c-N2GnIyo7EjWN-7pbOH-86" source="c-N2GnIyo7EjWN-7pbOH-88" target="c-N2GnIyo7EjWN-7pbOH-92">
          <mxGeometry width="160" relative="1" as="geometry">
            <mxPoint x="130" y="1540" as="sourcePoint" />
            <mxPoint x="300" y="60" as="targetPoint" />
          </mxGeometry>
        </mxCell>
        <mxCell id="c-N2GnIyo7EjWN-7pbOH-92" value="Execute scenario job" style="points=[[0.25,0,0],[0.5,0,0],[0.75,0,0],[1,0.25,0],[1,0.5,0],[1,0.75,0],[0.75,1,0],[0.5,1,0],[0.25,1,0],[0,0.75,0],[0,0.5,0],[0,0.25,0]];shape=mxgraph.bpmn.task;whiteSpace=wrap;rectStyle=rounded;size=10;html=1;container=1;expand=0;collapsible=0;taskMarker=abstract;isLoopMultiParallel=1;verticalAlign=top;" vertex="1" parent="c-N2GnIyo7EjWN-7pbOH-86">
          <mxGeometry x="300" y="20" width="460" height="270" as="geometry" />
        </mxCell>
        <mxCell id="c-N2GnIyo7EjWN-7pbOH-93" value="" style="points=[[0.145,0.145,0],[0.5,0,0],[0.855,0.145,0],[1,0.5,0],[0.855,0.855,0],[0.5,1,0],[0.145,0.855,0],[0,0.5,0]];shape=mxgraph.bpmn.event;html=1;verticalLabelPosition=bottom;labelBackgroundColor=#ffffff;verticalAlign=top;align=center;perimeter=ellipsePerimeter;outlineConnect=0;aspect=fixed;outline=standard;symbol=general;" vertex="1" parent="c-N2GnIyo7EjWN-7pbOH-92">
          <mxGeometry x="20" y="50" width="50" height="50" as="geometry" />
        </mxCell>
        <mxCell id="c-N2GnIyo7EjWN-7pbOH-96" value="" style="fontSize=12;html=1;endFill=0;startFill=0;endSize=6;startSize=6;dashed=1;dashPattern=1 4;endArrow=openThin;startArrow=none;rounded=0;elbow=vertical;" edge="1" parent="U1KqUVC1e1E0VkJmuzpn-55" source="c-N2GnIyo7EjWN-7pbOH-25" target="c-N2GnIyo7EjWN-7pbOH-94">
          <mxGeometry width="160" relative="1" as="geometry">
            <mxPoint x="515" y="1741" as="sourcePoint" />
            <mxPoint x="488" y="1710" as="targetPoint" />
          </mxGeometry>
        </mxCell>
        <mxCell id="U1KqUVC1e1E0VkJmuzpn-89" value="POST /planning/artifacts" style="dashed=1;dashPattern=8 4;endArrow=blockThin;endFill=1;startArrow=oval;startFill=0;endSize=6;startSize=4;rounded=0;edgeStyle=elbowEdgeStyle;elbow=vertical;" parent="1" source="U1KqUVC1e1E0VkJmuzpn-86" target="U1KqUVC1e1E0VkJmuzpn-88" edge="1">
          <mxGeometry x="0.8879" width="160" relative="1" as="geometry">
            <mxPoint x="685" y="-1094" as="sourcePoint" />
            <mxPoint x="85" y="-894" as="targetPoint" />
            <mxPoint as="offset" />
          </mxGeometry>
        </mxCell>
        <mxCell id="U1KqUVC1e1E0VkJmuzpn-102" value="" style="dashed=1;dashPattern=8 4;endArrow=blockThin;endFill=1;startArrow=oval;startFill=0;endSize=6;startSize=4;rounded=0;edgeStyle=elbowEdgeStyle;elbow=vertical;" parent="1" source="U1KqUVC1e1E0VkJmuzpn-100" target="U1KqUVC1e1E0VkJmuzpn-87" edge="1">
          <mxGeometry width="160" relative="1" as="geometry">
            <mxPoint x="685" y="-1094" as="sourcePoint" />
            <mxPoint x="85" y="-894" as="targetPoint" />
          </mxGeometry>
        </mxCell>
        <mxCell id="U1KqUVC1e1E0VkJmuzpn-166" value="GET /planning/batches?tags=OneBatchNumber:1234" style="dashed=1;dashPattern=8 4;endArrow=blockThin;endFill=1;startArrow=oval;startFill=0;endSize=6;startSize=4;rounded=0;edgeStyle=elbowEdgeStyle;elbow=horizontal;" parent="1" source="U1KqUVC1e1E0VkJmuzpn-187" target="U1KqUVC1e1E0VkJmuzpn-165" edge="1">
          <mxGeometry x="-0.014" width="160" relative="1" as="geometry">
            <mxPoint x="200" y="-572" as="sourcePoint" />
            <mxPoint x="-90" y="-357" as="targetPoint" />
            <mxPoint y="1" as="offset" />
          </mxGeometry>
        </mxCell>
        <mxCell id="U1KqUVC1e1E0VkJmuzpn-180" value="POST /planning/plans" style="dashed=1;dashPattern=8 4;endArrow=blockThin;endFill=1;startArrow=oval;startFill=0;endSize=6;startSize=4;rounded=0;edgeStyle=elbowEdgeStyle;" parent="1" source="U1KqUVC1e1E0VkJmuzpn-177" target="U1KqUVC1e1E0VkJmuzpn-179" edge="1">
          <mxGeometry x="-0.3942" width="160" relative="1" as="geometry">
            <mxPoint x="875" y="-552" as="sourcePoint" />
            <mxPoint x="585" y="-337" as="targetPoint" />
            <mxPoint as="offset" />
          </mxGeometry>
        </mxCell>
        <mxCell id="U1KqUVC1e1E0VkJmuzpn-194" value="" style="dashed=1;dashPattern=8 4;endArrow=blockThin;endFill=1;startArrow=oval;startFill=0;endSize=6;startSize=4;rounded=0;edgeStyle=elbowEdgeStyle;elbow=vertical;" parent="1" source="U1KqUVC1e1E0VkJmuzpn-210" target="U1KqUVC1e1E0VkJmuzpn-184" edge="1">
          <mxGeometry width="160" relative="1" as="geometry">
            <mxPoint x="815" y="188" as="sourcePoint" />
            <mxPoint x="775" y="-884" as="targetPoint" />
          </mxGeometry>
        </mxCell>
        <mxCell id="U1KqUVC1e1E0VkJmuzpn-205" value="POST /planning/batches" style="dashed=1;dashPattern=8 4;endArrow=blockThin;endFill=1;startArrow=oval;startFill=0;endSize=6;startSize=4;rounded=0;edgeStyle=elbowEdgeStyle;elbow=horizontal;" parent="1" source="U1KqUVC1e1E0VkJmuzpn-195" target="U1KqUVC1e1E0VkJmuzpn-209" edge="1">
          <mxGeometry x="-0.1545" width="160" relative="1" as="geometry">
            <mxPoint x="240" y="-480" as="sourcePoint" />
            <mxPoint x="900" y="208" as="targetPoint" />
            <mxPoint as="offset" />
          </mxGeometry>
        </mxCell>
        <mxCell id="U1KqUVC1e1E0VkJmuzpn-206" value="" style="dashed=1;dashPattern=8 4;endArrow=blockThin;endFill=1;startArrow=oval;startFill=0;endSize=6;startSize=4;rounded=0;edgeStyle=elbowEdgeStyle;elbow=vertical;" parent="1" source="U1KqUVC1e1E0VkJmuzpn-211" target="U1KqUVC1e1E0VkJmuzpn-197" edge="1">
          <mxGeometry width="160" relative="1" as="geometry">
            <mxPoint x="1005" y="208" as="sourcePoint" />
            <mxPoint x="345" y="-495" as="targetPoint" />
          </mxGeometry>
        </mxCell>
        <mxCell id="U1KqUVC1e1E0VkJmuzpn-172" value="" style="dashed=1;dashPattern=8 4;endArrow=blockThin;endFill=1;startArrow=oval;startFill=0;endSize=6;startSize=4;rounded=0;edgeStyle=elbowEdgeStyle;elbow=vertical;" parent="1" source="U1KqUVC1e1E0VkJmuzpn-230" target="U1KqUVC1e1E0VkJmuzpn-170" edge="1">
          <mxGeometry width="160" relative="1" as="geometry">
            <mxPoint x="1495" y="628" as="sourcePoint" />
            <mxPoint x="275" y="-602" as="targetPoint" />
          </mxGeometry>
        </mxCell>
        <mxCell id="U1KqUVC1e1E0VkJmuzpn-280" value="GET /planning/plans/1234/executions/1234" style="dashed=1;dashPattern=8 4;endArrow=blockThin;endFill=1;startArrow=oval;startFill=0;endSize=6;startSize=4;rounded=0;edgeStyle=elbowEdgeStyle;elbow=vertical;" parent="1" source="U1KqUVC1e1E0VkJmuzpn-262" target="U1KqUVC1e1E0VkJmuzpn-279" edge="1">
          <mxGeometry x="-0.4395" width="160" relative="1" as="geometry">
            <mxPoint x="1535" y="-285" as="sourcePoint" />
            <mxPoint x="970" y="-237" as="targetPoint" />
            <mxPoint as="offset" />
          </mxGeometry>
        </mxCell>
        <mxCell id="U1KqUVC1e1E0VkJmuzpn-282" value="" style="dashed=1;dashPattern=8 4;endArrow=blockThin;endFill=1;startArrow=oval;startFill=0;endSize=6;startSize=4;rounded=0;edgeStyle=elbowEdgeStyle;elbow=vertical;" parent="1" source="U1KqUVC1e1E0VkJmuzpn-281" target="U1KqUVC1e1E0VkJmuzpn-261" edge="1">
          <mxGeometry width="160" relative="1" as="geometry">
            <mxPoint x="1855" y="606" as="sourcePoint" />
            <mxPoint x="1650" y="-422" as="targetPoint" />
          </mxGeometry>
        </mxCell>
        <mxCell id="c-N2GnIyo7EjWN-7pbOH-9" value="" style="points=[[0.145,0.145,0],[0.5,0,0],[0.855,0.145,0],[1,0.5,0],[0.855,0.855,0],[0.5,1,0],[0.145,0.855,0],[0,0.5,0]];shape=mxgraph.bpmn.event;html=1;verticalLabelPosition=bottom;labelBackgroundColor=#ffffff;verticalAlign=top;align=center;perimeter=ellipsePerimeter;outlineConnect=0;aspect=fixed;outline=boundInt;symbol=error;" vertex="1" parent="1">
          <mxGeometry x="1241" y="-555" width="50" height="50" as="geometry" />
        </mxCell>
        <mxCell id="c-N2GnIyo7EjWN-7pbOH-11" value="" style="edgeStyle=orthogonalEdgeStyle;fontSize=12;html=1;endArrow=blockThin;endFill=1;rounded=0;" edge="1" parent="1" source="c-N2GnIyo7EjWN-7pbOH-9" target="c-N2GnIyo7EjWN-7pbOH-12">
          <mxGeometry width="160" relative="1" as="geometry">
            <mxPoint x="3060" y="-557" as="sourcePoint" />
            <mxPoint x="3040" y="-615" as="targetPoint" />
          </mxGeometry>
        </mxCell>
      </root>
    </mxGraphModel>
  </diagram>
</mxfile>
